<?xml version="1.0" encoding="UTF-8"?>
<svg xmlns="http://www.w3.org/2000/svg" version="1.1" width="1042" height="1042" style="background: transparent;">

<path d="M0 0 C22.11 0 44.22 0 67 0 C67 36.3 67 72.6 67 110 C66.34 110 65.68 110 65 110 C65 115.28 65 120.56 65 126 C64.34 126 63.68 126 63 126 C63 131.28 63 136.56 63 142 C62.01 142 61.02 142 60 142 C60 145.63 60 149.26 60 153 C59.34 153 58.68 153 58 153 C58 155.97 58 158.94 58 162 C57.34 162 56.68 162 56 162 C56 164.64 56 167.28 56 170 C55.34 170 54.68 170 54 170 C54 172.97 54 175.94 54 179 C53.01 179 52.02 179 51 179 C51 180.65 51 182.3 51 184 C50.34 184 49.68 184 49 184 C49 185.32 49 186.64 49 188 C48.34 188 47.68 188 47 188 C47 190.31 47 192.62 47 195 C46.34 195 45.68 195 45 195 C45 196.32 45 197.64 45 199 C44.01 199 43.02 199 42 199 C42 200.65 42 202.3 42 204 C41.34 204 40.68 204 40 204 C40 205.32 40 206.64 40 208 C39.34 208 38.68 208 38 208 C38 209.65 38 211.3 38 213 C37.34 213 36.68 213 36 213 C36 214.32 36 215.64 36 217 C35.34 217 34.68 217 34 217 C34 218.65 34 220.3 34 222 C33.01 222 32.02 222 31 222 C31 222.66 31 223.32 31 224 C30.34 224 29.68 224 29 224 C29 225.32 29 226.64 29 228 C28.34 228 27.68 228 27 228 C27 228.99 27 229.98 27 231 C26.34 231 25.68 231 25 231 C25 232.32 25 233.64 25 235 C24.01 235 23.02 235 22 235 C22 235.66 22 236.32 22 237 C21.34 237 20.68 237 20 237 C20 237.66 20 238.32 20 239 C19.34 239 18.68 239 18 239 C18 240.65 18 242.3 18 244 C17.34 244 16.68 244 16 244 C16 244.66 16 245.32 16 246 C15.34 246 14.68 246 14 246 C14 246.66 14 247.32 14 248 C13.01 248 12.02 248 11 248 C11 248.99 11 249.98 11 251 C10.34 251 9.68 251 9 251 C9 251.66 9 252.32 9 253 C8.34 253 7.68 253 7 253 C7 253.66 7 254.32 7 255 C6.34 255 5.68 255 5 255 C5 255.66 5 256.32 5 257 C4.01 257 3.02 257 2 257 C2 257.66 2 258.32 2 259 C1.34 259 0.68 259 0 259 C0 259.99 0 260.98 0 262 C-0.66 262 -1.32 262 -2 262 C-2 262.66 -2 263.32 -2 264 C-2.66 264 -3.32 264 -4 264 C-4 264.66 -4 265.32 -4 266 C-4.99 266 -5.98 266 -7 266 C-7 266.66 -7 267.32 -7 268 C-7.66 268 -8.32 268 -9 268 C-9 268.99 -9 269.98 -9 271 C-10.32 271 -11.64 271 -13 271 C-13 271.66 -13 272.32 -13 273 C-13.66 273 -14.32 273 -15 273 C-15 273.66 -15 274.32 -15 275 C-16.65 275 -18.3 275 -20 275 C-20 275.66 -20 276.32 -20 277 C-20.66 277 -21.32 277 -22 277 C-22 277.66 -22 278.32 -22 279 C-22.66 279 -23.32 279 -24 279 C-24 279.99 -24 280.98 -24 282 C-25.65 282 -27.3 282 -29 282 C-29 282.66 -29 283.32 -29 284 C-30.32 284 -31.64 284 -33 284 C-33 284.66 -33 285.32 -33 286 C-34.65 286 -36.3 286 -38 286 C-38 286.66 -38 287.32 -38 288 C-38.66 288 -39.32 288 -40 288 C-40 288.99 -40 289.98 -40 291 C-41.32 291 -42.64 291 -44 291 C-44 291.66 -44 292.32 -44 293 C-46.31 293 -48.62 293 -51 293 C-51 293.66 -51 294.32 -51 295 C-53.31 295 -55.62 295 -58 295 C-58 295.66 -58 296.32 -58 297 C-58.66 297 -59.32 297 -60 297 C-60 297.66 -60 298.32 -60 299 C-62.97 299 -65.94 299 -69 299 C-69 299.99 -69 300.98 -69 302 C-70.32 302 -71.64 302 -73 302 C-73 302.66 -73 303.32 -73 304 C-75.31 304 -77.62 304 -80 304 C-80 304.66 -80 305.32 -80 306 C-83.63 306 -87.26 306 -91 306 C-91 306.66 -91 307.32 -91 308 C-94.63 308 -98.26 308 -102 308 C-102 308.99 -102 309.98 -102 311 C-104.97 311 -107.94 311 -111 311 C-111 311.66 -111 312.32 -111 313 C-116.94 313 -122.88 313 -129 313 C-129 313.66 -129 314.32 -129 315 C-164.31 315 -199.62 315 -236 315 C-236 374.4 -236 433.8 -236 495 C-235.34 495 -234.68 495 -234 495 C-234 500.94 -234 506.88 -234 513 C-233.01 513 -232.02 513 -231 513 C-231 516.63 -231 520.26 -231 524 C-230.34 524 -229.68 524 -229 524 C-229 526.97 -229 529.94 -229 533 C-228.34 533 -227.68 533 -227 533 C-227 535.97 -227 538.94 -227 542 C-226.34 542 -225.68 542 -225 542 C-225 544.31 -225 546.62 -225 549 C-224.34 549 -223.68 549 -223 549 C-223 550.98 -223 552.96 -223 555 C-222.01 555 -221.02 555 -220 555 C-220 556.65 -220 558.3 -220 560 C-219.34 560 -218.68 560 -218 560 C-218 561.32 -218 562.64 -218 564 C-217.34 564 -216.68 564 -216 564 C-216 565.65 -216 567.3 -216 569 C-215.34 569 -214.68 569 -214 569 C-214 570.32 -214 571.64 -214 573 C-213.01 573 -212.02 573 -211 573 C-211 574.65 -211 576.3 -211 578 C-210.34 578 -209.68 578 -209 578 C-209 579.32 -209 580.64 -209 582 C-208.34 582 -207.68 582 -207 582 C-207 582.66 -207 583.32 -207 584 C-206.34 584 -205.68 584 -205 584 C-205 585.65 -205 587.3 -205 589 C-204.34 589 -203.68 589 -203 589 C-203 589.66 -203 590.32 -203 591 C-202.01 591 -201.02 591 -200 591 C-200 592.32 -200 593.64 -200 595 C-198.68 595 -197.36 595 -196 595 C-196 596.65 -196 598.3 -196 600 C-195.34 600 -194.68 600 -194 600 C-194 600.66 -194 601.32 -194 602 C-193.01 602 -192.02 602 -191 602 C-191 602.66 -191 603.32 -191 604 C-190.34 604 -189.68 604 -189 604 C-189 604.66 -189 605.32 -189 606 C-187.68 606 -186.36 606 -185 606 C-185 606.99 -185 607.98 -185 609 C-184.01 609 -183.02 609 -182 609 C-182 609.66 -182 610.32 -182 611 C-181.34 611 -180.68 611 -180 611 C-180 611.66 -180 612.32 -180 613 C-179.34 613 -178.68 613 -178 613 C-178 613.66 -178 614.32 -178 615 C-176.68 615 -175.36 615 -174 615 C-174 615.99 -174 616.98 -174 618 C-173.01 618 -172.02 618 -171 618 C-171 618.66 -171 619.32 -171 620 C-170.34 620 -169.68 620 -169 620 C-169 620.66 -169 621.32 -169 622 C-166.69 622 -164.38 622 -162 622 C-162 622.66 -162 623.32 -162 624 C-161.34 624 -160.68 624 -160 624 C-160 624.66 -160 625.32 -160 626 C-158.02 626 -156.04 626 -154 626 C-154 626.99 -154 627.98 -154 629 C-151.69 629 -149.38 629 -147 629 C-147 629.66 -147 630.32 -147 631 C-144.03 631 -141.06 631 -138 631 C-138 631.66 -138 632.32 -138 633 C-135.03 633 -132.06 633 -129 633 C-129 633.66 -129 634.32 -129 635 C-109.2 635 -89.4 635 -69 635 C-69 634.34 -69 633.68 -69 633 C-66.03 633 -63.06 633 -60 633 C-60 632.34 -60 631.68 -60 631 C-58.68 631 -57.36 631 -56 631 C-56 630.34 -56 629.68 -56 629 C-53.69 629 -51.38 629 -49 629 C-49 628.01 -49 627.02 -49 626 C-46.69 626 -44.38 626 -42 626 C-42 625.34 -42 624.68 -42 624 C-40.68 624 -39.36 624 -38 624 C-38 623.34 -38 622.68 -38 622 C-36.35 622 -34.7 622 -33 622 C-33 621.34 -33 620.68 -33 620 C-31.68 620 -30.36 620 -29 620 C-29 619.34 -29 618.68 -29 618 C-28.34 618 -27.68 618 -27 618 C-27 617.01 -27 616.02 -27 615 C-25.35 615 -23.7 615 -22 615 C-22 614.34 -22 613.68 -22 613 C-21.34 613 -20.68 613 -20 613 C-20 612.34 -20 611.68 -20 611 C-19.34 611 -18.68 611 -18 611 C-18 610.34 -18 609.68 -18 609 C-16.35 609 -14.7 609 -13 609 C-13 608.01 -13 607.02 -13 606 C-12.34 606 -11.68 606 -11 606 C-11 605.34 -11 604.68 -11 604 C-10.34 604 -9.68 604 -9 604 C-9 603.34 -9 602.68 -9 602 C-8.34 602 -7.68 602 -7 602 C-7 601.34 -7 600.68 -7 600 C-6.01 600 -5.02 600 -4 600 C-4 599.34 -4 598.68 -4 598 C-3.34 598 -2.68 598 -2 598 C-2 597.01 -2 596.02 -2 595 C-1.34 595 -0.68 595 0 595 C0 594.34 0 593.68 0 593 C0.66 593 1.32 593 2 593 C2 591.68 2 590.36 2 589 C2.99 589 3.98 589 5 589 C5 588.01 5 587.02 5 586 C5.66 586 6.32 586 7 586 C7 585.34 7 584.68 7 584 C7.66 584 8.32 584 9 584 C9 582.68 9 581.36 9 580 C9.66 580 10.32 580 11 580 C11 579.34 11 578.68 11 578 C11.99 578 12.98 578 14 578 C14 576.35 14 574.7 14 573 C14.66 573 15.32 573 16 573 C16 571.68 16 570.36 16 569 C16.66 569 17.32 569 18 569 C18 567.35 18 565.7 18 564 C18.66 564 19.32 564 20 564 C20 562.68 20 561.36 20 560 C20.66 560 21.32 560 22 560 C22 557.69 22 555.38 22 553 C22.99 553 23.98 553 25 553 C25 551.68 25 550.36 25 549 C25.66 549 26.32 549 27 549 C27 546.69 27 544.38 27 542 C27.66 542 28.32 542 29 542 C29 538.37 29 534.74 29 531 C29.66 531 30.32 531 31 531 C31 528.03 31 525.06 31 522 C31.99 522 32.98 522 34 522 C34 518.37 34 514.74 34 511 C34.66 511 35.32 511 36 511 C36 495.49 36 479.98 36 464 C51.85189276 463.95989119 51.85189276 463.95989119 58.60351562 463.95117188 C63.21233266 463.94519169 67.82112984 463.93811333 72.42993164 463.92456055 C76.14519659 463.91370356 79.86044025 463.90771718 83.57571983 463.90512276 C84.99390689 463.90327359 86.41209276 463.89966269 87.83027077 463.89426994 C89.81497692 463.88702236 91.79970444 463.88659162 93.78442383 463.88647461 C94.91471512 463.884254 96.04500641 463.88203339 97.20954895 463.87974548 C100 464 100 464 103 465 C103 477.21 103 489.42 103 502 C102.01 502 101.02 502 100 502 C100 505.63 100 509.26 100 513 C99.34 513 98.68 513 98 513 C98 520.92 98 528.84 98 537 C97.34 537 96.68 537 96 537 C96 538.65 96 540.3 96 542 C95.34 542 94.68 542 94 542 C94 546.29 94 550.58 94 555 C93.01 555 92.02 555 91 555 C91 557.97 91 560.94 91 564 C90.34 564 89.68 564 89 564 C89 565.65 89 567.3 89 569 C88.34 569 87.68 569 87 569 C87 570.98 87 572.96 87 575 C86.34 575 85.68 575 85 575 C85 576.65 85 578.3 85 580 C84.34 580 83.68 580 83 580 C83 581.98 83 583.96 83 586 C82.01 586 81.02 586 80 586 C80 587.65 80 589.3 80 591 C79.34 591 78.68 591 78 591 C78 592.32 78 593.64 78 595 C77.34 595 76.68 595 76 595 C76 596.65 76 598.3 76 600 C75.34 600 74.68 600 74 600 C74 601.32 74 602.64 74 604 C73.01 604 72.02 604 71 604 C71 605.65 71 607.3 71 609 C70.34 609 69.68 609 69 609 C69 609.66 69 610.32 69 611 C68.34 611 67.68 611 67 611 C67 612.32 67 613.64 67 615 C66.34 615 65.68 615 65 615 C65 615.99 65 616.98 65 618 C64.34 618 63.68 618 63 618 C63 619.32 63 620.64 63 622 C62.01 622 61.02 622 60 622 C60 622.66 60 623.32 60 624 C59.34 624 58.68 624 58 624 C58 624.66 58 625.32 58 626 C57.34 626 56.68 626 56 626 C56 626.99 56 627.98 56 629 C55.34 629 54.68 629 54 629 C54 629.66 54 630.32 54 631 C53.01 631 52.02 631 51 631 C51 632.32 51 633.64 51 635 C50.34 635 49.68 635 49 635 C49 635.99 49 636.98 49 638 C48.34 638 47.68 638 47 638 C47 638.66 47 639.32 47 640 C46.34 640 45.68 640 45 640 C45 640.66 45 641.32 45 642 C44.01 642 43.02 642 42 642 C42 642.66 42 643.32 42 644 C41.34 644 40.68 644 40 644 C40 644.66 40 645.32 40 646 C39.34 646 38.68 646 38 646 C38 646.99 38 647.98 38 649 C37.34 649 36.68 649 36 649 C36 649.66 36 650.32 36 651 C35.34 651 34.68 651 34 651 C34 651.66 34 652.32 34 653 C32.35 653 30.7 653 29 653 C29 653.66 29 654.32 29 655 C28.34 655 27.68 655 27 655 C27 655.99 27 656.98 27 658 C26.34 658 25.68 658 25 658 C25 658.66 25 659.32 25 660 C23.35 660 21.7 660 20 660 C20 660.66 20 661.32 20 662 C19.34 662 18.68 662 18 662 C18 662.66 18 663.32 18 664 C16.68 664 15.36 664 14 664 C14 664.66 14 665.32 14 666 C13.01 666 12.02 666 11 666 C11 666.99 11 667.98 11 669 C9.68 669 8.36 669 7 669 C7 669.66 7 670.32 7 671 C5.35 671 3.7 671 2 671 C2 671.66 2 672.32 2 673 C0.68 673 -0.64 673 -2 673 C-2 673.66 -2 674.32 -2 675 C-3.65 675 -5.3 675 -7 675 C-7 675.99 -7 676.98 -7 678 C-8.98 678 -10.96 678 -13 678 C-13 678.66 -13 679.32 -13 680 C-13.66 680 -14.32 680 -15 680 C-15 680.66 -15 681.32 -15 682 C-17.31 682 -19.62 682 -22 682 C-22 682.66 -22 683.32 -22 684 C-24.31 684 -26.62 684 -29 684 C-29 684.99 -29 685.98 -29 687 C-32.63 687 -36.26 687 -40 687 C-40 687.66 -40 688.32 -40 689 C-42.31 689 -44.62 689 -47 689 C-47 689.66 -47 690.32 -47 691 C-51.95 691 -56.9 691 -62 691 C-62 691.66 -62 692.32 -62 693 C-73.22 693 -84.44 693 -96 693 C-96 693.66 -96 694.32 -96 695 C-97.98 695 -99.96 695 -102 695 C-102 694.34 -102 693.68 -102 693 C-114.54 693 -127.08 693 -140 693 C-140 692.34 -140 691.68 -140 691 C-142.97 691 -145.94 691 -149 691 C-149 690.34 -149 689.68 -149 689 C-152.63 689 -156.26 689 -160 689 C-160 688.34 -160 687.68 -160 687 C-162.97 687 -165.94 687 -169 687 C-169 686.01 -169 685.02 -169 684 C-171.31 684 -173.62 684 -176 684 C-176 683.34 -176 682.68 -176 682 C-177.32 682 -178.64 682 -180 682 C-180 681.34 -180 680.68 -180 680 C-182.31 680 -184.62 680 -187 680 C-187 679.34 -187 678.68 -187 678 C-188.32 678 -189.64 678 -191 678 C-191 677.01 -191 676.02 -191 675 C-192.65 675 -194.3 675 -196 675 C-196 674.34 -196 673.68 -196 673 C-197.32 673 -198.64 673 -200 673 C-200 672.34 -200 671.68 -200 671 C-201.65 671 -203.3 671 -205 671 C-205 670.34 -205 669.68 -205 669 C-206.32 669 -207.64 669 -209 669 C-209 668.01 -209 667.02 -209 666 C-209.66 666 -210.32 666 -211 666 C-211 665.34 -211 664.68 -211 664 C-211.99 664 -212.98 664 -214 664 C-214 663.34 -214 662.68 -214 662 C-215.98 662 -217.96 662 -220 662 C-220 661.34 -220 660.68 -220 660 C-220.99 660 -221.98 660 -223 660 C-223 659.34 -223 658.68 -223 658 C-223.66 658 -224.32 658 -225 658 C-225 657.01 -225 656.02 -225 655 C-225.66 655 -226.32 655 -227 655 C-227 654.34 -227 653.68 -227 653 C-228.32 653 -229.64 653 -231 653 C-231 652.34 -231 651.68 -231 651 C-231.99 651 -232.98 651 -234 651 C-234 650.34 -234 649.68 -234 649 C-234.66 649 -235.32 649 -236 649 C-236 648.01 -236 647.02 -236 646 C-236.66 646 -237.32 646 -238 646 C-238 644.68 -238 643.36 -238 642 C-238.66 642 -239.32 642 -240 642 C-240 641.34 -240 640.68 -240 640 C-240.99 640 -241.98 640 -243 640 C-243 639.34 -243 638.68 -243 638 C-244.32 638 -245.64 638 -247 638 C-247 637.01 -247 636.02 -247 635 C-247.66 635 -248.32 635 -249 635 C-249 633.68 -249 632.36 -249 631 C-249.99 631 -250.98 631 -252 631 C-252 630.34 -252 629.68 -252 629 C-252.66 629 -253.32 629 -254 629 C-254 628.01 -254 627.02 -254 626 C-254.66 626 -255.32 626 -256 626 C-256 624.68 -256 623.36 -256 622 C-256.66 622 -257.32 622 -258 622 C-258 621.34 -258 620.68 -258 620 C-258.66 620 -259.32 620 -260 620 C-260 619.34 -260 618.68 -260 618 C-260.99 618 -261.98 618 -263 618 C-263 616.35 -263 614.7 -263 613 C-263.66 613 -264.32 613 -265 613 C-265 611.68 -265 610.36 -265 609 C-265.66 609 -266.32 609 -267 609 C-267 608.01 -267 607.02 -267 606 C-267.66 606 -268.32 606 -269 606 C-269 604.68 -269 603.36 -269 602 C-269.99 602 -270.98 602 -272 602 C-272 600.68 -272 599.36 -272 598 C-272.66 598 -273.32 598 -274 598 C-274 596.35 -274 594.7 -274 593 C-274.66 593 -275.32 593 -276 593 C-276 591.68 -276 590.36 -276 589 C-276.66 589 -277.32 589 -278 589 C-278 587.35 -278 585.7 -278 584 C-278.66 584 -279.32 584 -280 584 C-280 582.68 -280 581.36 -280 580 C-280.99 580 -281.98 580 -283 580 C-283 577.69 -283 575.38 -283 573 C-283.66 573 -284.32 573 -285 573 C-285 571.68 -285 570.36 -285 569 C-285.66 569 -286.32 569 -287 569 C-287 566.69 -287 564.38 -287 562 C-287.66 562 -288.32 562 -289 562 C-289 559.69 -289 557.38 -289 555 C-289.99 555 -290.98 555 -292 555 C-292 553.02 -292 551.04 -292 549 C-292.66 549 -293.32 549 -294 549 C-294 545.04 -294 541.08 -294 537 C-294.66 537 -295.32 537 -296 537 C-296 534.36 -296 531.72 -296 529 C-296.66 529 -297.32 529 -298 529 C-298 524.38 -298 519.76 -298 515 C-298.99 515 -299.98 515 -301 515 C-301 507.74 -301 500.48 -301 493 C-301.66 493 -302.32 493 -303 493 C-303 415.78 -303 338.56 -303 259 C-254.49 259 -205.98 259 -156 259 C-156 258.34 -156 257.68 -156 257 C-150.72 257 -145.44 257 -140 257 C-140 256.34 -140 255.68 -140 255 C-135.71 255 -131.42 255 -127 255 C-127 254.34 -127 253.68 -127 253 C-125.35 253 -123.7 253 -122 253 C-122 252.34 -122 251.68 -122 251 C-118.37 251 -114.74 251 -111 251 C-111 250.01 -111 249.02 -111 248 C-109.68 248 -108.36 248 -107 248 C-107 247.34 -107 246.68 -107 246 C-104.69 246 -102.38 246 -100 246 C-100 245.34 -100 244.68 -100 244 C-98.68 244 -97.36 244 -96 244 C-96 243.34 -96 242.68 -96 242 C-93.69 242 -91.38 242 -89 242 C-89 241.01 -89 240.02 -89 239 C-88.34 239 -87.68 239 -87 239 C-87 238.34 -87 237.68 -87 237 C-84.69 237 -82.38 237 -80 237 C-80 236.34 -80 235.68 -80 235 C-79.34 235 -78.68 235 -78 235 C-78 234.34 -78 233.68 -78 233 C-76.35 233 -74.7 233 -73 233 C-73 232.34 -73 231.68 -73 231 C-71.68 231 -70.36 231 -69 231 C-69 230.01 -69 229.02 -69 228 C-68.34 228 -67.68 228 -67 228 C-67 227.34 -67 226.68 -67 226 C-66.01 226 -65.02 226 -64 226 C-64 225.34 -64 224.68 -64 224 C-62.68 224 -61.36 224 -60 224 C-60 223.34 -60 222.68 -60 222 C-59.34 222 -58.68 222 -58 222 C-58 221.01 -58 220.02 -58 219 C-57.34 219 -56.68 219 -56 219 C-56 218.34 -56 217.68 -56 217 C-55.01 217 -54.02 217 -53 217 C-53 216.34 -53 215.68 -53 215 C-51.68 215 -50.36 215 -49 215 C-49 214.34 -49 213.68 -49 213 C-48.34 213 -47.68 213 -47 213 C-47 211.35 -47 209.7 -47 208 C-46.01 208 -45.02 208 -44 208 C-44 207.34 -44 206.68 -44 206 C-43.34 206 -42.68 206 -42 206 C-42 205.34 -42 204.68 -42 204 C-41.34 204 -40.68 204 -40 204 C-40 203.34 -40 202.68 -40 202 C-39.34 202 -38.68 202 -38 202 C-38 201.01 -38 200.02 -38 199 C-37.01 199 -36.02 199 -35 199 C-35 197.68 -35 196.36 -35 195 C-34.34 195 -33.68 195 -33 195 C-33 194.34 -33 193.68 -33 193 C-32.34 193 -31.68 193 -31 193 C-31 192.34 -31 191.68 -31 191 C-30.34 191 -29.68 191 -29 191 C-29 189.35 -29 187.7 -29 186 C-28.34 186 -27.68 186 -27 186 C-27 184.68 -27 183.36 -27 182 C-26.01 182 -25.02 182 -24 182 C-24 181.01 -24 180.02 -24 179 C-23.34 179 -22.68 179 -22 179 C-22 177.68 -22 176.36 -22 175 C-21.34 175 -20.68 175 -20 175 C-20 173.35 -20 171.7 -20 170 C-19.34 170 -18.68 170 -18 170 C-18 168.02 -18 166.04 -18 164 C-17.01 164 -16.02 164 -15 164 C-15 162.35 -15 160.7 -15 159 C-14.34 159 -13.68 159 -13 159 C-13 157.02 -13 155.04 -13 153 C-12.34 153 -11.68 153 -11 153 C-11 150.03 -11 147.06 -11 144 C-10.34 144 -9.68 144 -9 144 C-9 141.03 -9 138.06 -9 135 C-8.34 135 -7.68 135 -7 135 C-7 131.37 -7 127.74 -7 124 C-6.01 124 -5.02 124 -4 124 C-4 122.35 -4 120.7 -4 119 C-3.34 119 -2.68 119 -2 119 C-2 112.4 -2 105.8 -2 99 C-1.34 99 -0.68 99 0 99 C0 66.33 0 33.66 0 0 Z " fill="#24AB55" transform="translate(633,144)"/>
<path d="M0 0 C14.19 0 28.38 0 43 0 C43 32.67 43 65.34 43 99 C42.34 99 41.68 99 41 99 C41 105.6 41 112.2 41 119 C40.34 119 39.68 119 39 119 C39 120.65 39 122.3 39 124 C38.01 124 37.02 124 36 124 C36 127.63 36 131.26 36 135 C35.34 135 34.68 135 34 135 C34 137.97 34 140.94 34 144 C33.34 144 32.68 144 32 144 C32 146.97 32 149.94 32 153 C31.34 153 30.68 153 30 153 C30 154.98 30 156.96 30 159 C29.34 159 28.68 159 28 159 C28 160.65 28 162.3 28 164 C27.01 164 26.02 164 25 164 C25 165.98 25 167.96 25 170 C24.34 170 23.68 170 23 170 C23 171.65 23 173.3 23 175 C22.34 175 21.68 175 21 175 C21 176.32 21 177.64 21 179 C20.34 179 19.68 179 19 179 C19 179.99 19 180.98 19 182 C18.01 182 17.02 182 16 182 C16 183.32 16 184.64 16 186 C15.34 186 14.68 186 14 186 C14 187.65 14 189.3 14 191 C13.34 191 12.68 191 12 191 C12 191.66 12 192.32 12 193 C11.34 193 10.68 193 10 193 C10 193.66 10 194.32 10 195 C9.34 195 8.68 195 8 195 C8 196.32 8 197.64 8 199 C7.01 199 6.02 199 5 199 C5 199.99 5 200.98 5 202 C4.34 202 3.68 202 3 202 C3 202.66 3 203.32 3 204 C2.34 204 1.68 204 1 204 C1 204.66 1 205.32 1 206 C0.34 206 -0.32 206 -1 206 C-1 206.66 -1 207.32 -1 208 C-1.99 208 -2.98 208 -4 208 C-4 209.65 -4 211.3 -4 213 C-4.66 213 -5.32 213 -6 213 C-6 213.66 -6 214.32 -6 215 C-7.32 215 -8.64 215 -10 215 C-10 215.66 -10 216.32 -10 217 C-10.99 217 -11.98 217 -13 217 C-13 217.66 -13 218.32 -13 219 C-13.66 219 -14.32 219 -15 219 C-15 219.99 -15 220.98 -15 222 C-15.66 222 -16.32 222 -17 222 C-17 222.66 -17 223.32 -17 224 C-18.32 224 -19.64 224 -21 224 C-21 224.66 -21 225.32 -21 226 C-21.99 226 -22.98 226 -24 226 C-24 226.66 -24 227.32 -24 228 C-24.66 228 -25.32 228 -26 228 C-26 228.99 -26 229.98 -26 231 C-27.32 231 -28.64 231 -30 231 C-30 231.66 -30 232.32 -30 233 C-31.65 233 -33.3 233 -35 233 C-35 233.66 -35 234.32 -35 235 C-35.66 235 -36.32 235 -37 235 C-37 235.66 -37 236.32 -37 237 C-39.31 237 -41.62 237 -44 237 C-44 237.66 -44 238.32 -44 239 C-44.66 239 -45.32 239 -46 239 C-46 239.99 -46 240.98 -46 242 C-48.31 242 -50.62 242 -53 242 C-53 242.66 -53 243.32 -53 244 C-54.32 244 -55.64 244 -57 244 C-57 244.66 -57 245.32 -57 246 C-59.31 246 -61.62 246 -64 246 C-64 246.66 -64 247.32 -64 248 C-65.32 248 -66.64 248 -68 248 C-68 248.99 -68 249.98 -68 251 C-71.63 251 -75.26 251 -79 251 C-79 251.66 -79 252.32 -79 253 C-80.65 253 -82.3 253 -84 253 C-84 253.66 -84 254.32 -84 255 C-88.29 255 -92.58 255 -97 255 C-97 255.66 -97 256.32 -97 257 C-102.28 257 -107.56 257 -113 257 C-113 257.66 -113 258.32 -113 259 C-161.51 259 -210.02 259 -260 259 C-260 336.22 -260 413.44 -260 493 C-259.34 493 -258.68 493 -258 493 C-258 500.26 -258 507.52 -258 515 C-257.01 515 -256.02 515 -255 515 C-255 519.62 -255 524.24 -255 529 C-254.34 529 -253.68 529 -253 529 C-253 531.64 -253 534.28 -253 537 C-252.34 537 -251.68 537 -251 537 C-251 540.96 -251 544.92 -251 549 C-250.34 549 -249.68 549 -249 549 C-249 550.98 -249 552.96 -249 555 C-248.01 555 -247.02 555 -246 555 C-246 557.31 -246 559.62 -246 562 C-245.34 562 -244.68 562 -244 562 C-244 564.31 -244 566.62 -244 569 C-243.34 569 -242.68 569 -242 569 C-242 570.32 -242 571.64 -242 573 C-241.34 573 -240.68 573 -240 573 C-240 575.31 -240 577.62 -240 580 C-239.01 580 -238.02 580 -237 580 C-237 581.32 -237 582.64 -237 584 C-236.34 584 -235.68 584 -235 584 C-235 585.65 -235 587.3 -235 589 C-234.34 589 -233.68 589 -233 589 C-233 590.32 -233 591.64 -233 593 C-232.34 593 -231.68 593 -231 593 C-231 594.65 -231 596.3 -231 598 C-230.34 598 -229.68 598 -229 598 C-229 599.32 -229 600.64 -229 602 C-228.01 602 -227.02 602 -226 602 C-226 603.32 -226 604.64 -226 606 C-225.34 606 -224.68 606 -224 606 C-224 606.99 -224 607.98 -224 609 C-223.34 609 -222.68 609 -222 609 C-222 610.32 -222 611.64 -222 613 C-221.34 613 -220.68 613 -220 613 C-220 614.65 -220 616.3 -220 618 C-219.01 618 -218.02 618 -217 618 C-217 618.66 -217 619.32 -217 620 C-216.34 620 -215.68 620 -215 620 C-215 620.66 -215 621.32 -215 622 C-214.34 622 -213.68 622 -213 622 C-213 623.32 -213 624.64 -213 626 C-212.34 626 -211.68 626 -211 626 C-211 626.99 -211 627.98 -211 629 C-210.34 629 -209.68 629 -209 629 C-209 629.66 -209 630.32 -209 631 C-208.01 631 -207.02 631 -206 631 C-206 632.32 -206 633.64 -206 635 C-205.34 635 -204.68 635 -204 635 C-204 635.99 -204 636.98 -204 638 C-202.68 638 -201.36 638 -200 638 C-200 638.66 -200 639.32 -200 640 C-199.01 640 -198.02 640 -197 640 C-197 640.66 -197 641.32 -197 642 C-196.34 642 -195.68 642 -195 642 C-195 643.32 -195 644.64 -195 646 C-194.34 646 -193.68 646 -193 646 C-193 646.99 -193 647.98 -193 649 C-192.34 649 -191.68 649 -191 649 C-191 649.66 -191 650.32 -191 651 C-190.01 651 -189.02 651 -188 651 C-188 651.66 -188 652.32 -188 653 C-186.68 653 -185.36 653 -184 653 C-184 653.66 -184 654.32 -184 655 C-183.34 655 -182.68 655 -182 655 C-182 655.99 -182 656.98 -182 658 C-181.34 658 -180.68 658 -180 658 C-180 658.66 -180 659.32 -180 660 C-179.01 660 -178.02 660 -177 660 C-177 660.66 -177 661.32 -177 662 C-175.02 662 -173.04 662 -171 662 C-171 662.66 -171 663.32 -171 664 C-170.01 664 -169.02 664 -168 664 C-168 664.66 -168 665.32 -168 666 C-167.34 666 -166.68 666 -166 666 C-166 666.99 -166 667.98 -166 669 C-164.68 669 -163.36 669 -162 669 C-162 669.66 -162 670.32 -162 671 C-160.35 671 -158.7 671 -157 671 C-157 671.66 -157 672.32 -157 673 C-155.68 673 -154.36 673 -153 673 C-153 673.66 -153 674.32 -153 675 C-151.35 675 -149.7 675 -148 675 C-148 675.99 -148 676.98 -148 678 C-146.68 678 -145.36 678 -144 678 C-144 678.66 -144 679.32 -144 680 C-141.69 680 -139.38 680 -137 680 C-137 680.66 -137 681.32 -137 682 C-135.68 682 -134.36 682 -133 682 C-133 682.66 -133 683.32 -133 684 C-130.69 684 -128.38 684 -126 684 C-126 684.99 -126 685.98 -126 687 C-123.03 687 -120.06 687 -117 687 C-117 687.66 -117 688.32 -117 689 C-113.37 689 -109.74 689 -106 689 C-106 689.66 -106 690.32 -106 691 C-103.03 691 -100.06 691 -97 691 C-97 691.66 -97 692.32 -97 693 C-84.46 693 -71.92 693 -59 693 C-59 693.66 -59 694.32 -59 695 C-57.02 695 -55.04 695 -53 695 C-53 694.34 -53 693.68 -53 693 C-41.78 693 -30.56 693 -19 693 C-19 692.34 -19 691.68 -19 691 C-14.05 691 -9.1 691 -4 691 C-4 690.34 -4 689.68 -4 689 C-1.69 689 0.62 689 3 689 C3 688.34 3 687.68 3 687 C6.63 687 10.26 687 14 687 C14 686.01 14 685.02 14 684 C16.31 684 18.62 684 21 684 C21 683.34 21 682.68 21 682 C23.31 682 25.62 682 28 682 C28 681.34 28 680.68 28 680 C28.66 680 29.32 680 30 680 C30 679.34 30 678.68 30 678 C31.98 678 33.96 678 36 678 C36 677.01 36 676.02 36 675 C37.65 675 39.3 675 41 675 C41 674.34 41 673.68 41 673 C42.32 673 43.64 673 45 673 C45 672.34 45 671.68 45 671 C46.65 671 48.3 671 50 671 C50 670.34 50 669.68 50 669 C51.32 669 52.64 669 54 669 C54 668.01 54 667.02 54 666 C54.99 666 55.98 666 57 666 C57 665.34 57 664.68 57 664 C58.32 664 59.64 664 61 664 C61 663.34 61 662.68 61 662 C61.66 662 62.32 662 63 662 C63 661.34 63 660.68 63 660 C64.65 660 66.3 660 68 660 C68 659.34 68 658.68 68 658 C68.66 658 69.32 658 70 658 C70 657.01 70 656.02 70 655 C70.66 655 71.32 655 72 655 C72 654.34 72 653.68 72 653 C73.65 653 75.3 653 77 653 C77 652.34 77 651.68 77 651 C77.66 651 78.32 651 79 651 C79 650.34 79 649.68 79 649 C79.66 649 80.32 649 81 649 C81 648.01 81 647.02 81 646 C81.66 646 82.32 646 83 646 C83 645.34 83 644.68 83 644 C83.66 644 84.32 644 85 644 C85 643.34 85 642.68 85 642 C85.99 642 86.98 642 88 642 C88 641.34 88 640.68 88 640 C88.66 640 89.32 640 90 640 C90 639.34 90 638.68 90 638 C90.66 638 91.32 638 92 638 C92 637.01 92 636.02 92 635 C92.66 635 93.32 635 94 635 C94 633.68 94 632.36 94 631 C94.99 631 95.98 631 97 631 C97 630.34 97 629.68 97 629 C97.66 629 98.32 629 99 629 C99 628.01 99 627.02 99 626 C99.66 626 100.32 626 101 626 C101 625.34 101 624.68 101 624 C101.66 624 102.32 624 103 624 C103 623.34 103 622.68 103 622 C103.99 622 104.98 622 106 622 C106 620.68 106 619.36 106 618 C106.66 618 107.32 618 108 618 C108 617.01 108 616.02 108 615 C108.66 615 109.32 615 110 615 C110 613.68 110 612.36 110 611 C110.66 611 111.32 611 112 611 C112 610.34 112 609.68 112 609 C112.66 609 113.32 609 114 609 C114 607.35 114 605.7 114 604 C114.99 604 115.98 604 117 604 C117 602.68 117 601.36 117 600 C117.66 600 118.32 600 119 600 C119 598.35 119 596.7 119 595 C119.66 595 120.32 595 121 595 C121 593.68 121 592.36 121 591 C121.66 591 122.32 591 123 591 C123 589.35 123 587.7 123 586 C123.99 586 124.98 586 126 586 C126 584.02 126 582.04 126 580 C126.66 580 127.32 580 128 580 C128 578.35 128 576.7 128 575 C128.66 575 129.32 575 130 575 C130 573.02 130 571.04 130 569 C130.66 569 131.32 569 132 569 C132 567.35 132 565.7 132 564 C132.66 564 133.32 564 134 564 C134 561.03 134 558.06 134 555 C134.99 555 135.98 555 137 555 C137 550.71 137 546.42 137 542 C137.66 542 138.32 542 139 542 C139 540.35 139 538.7 139 537 C139.66 537 140.32 537 141 537 C141 529.08 141 521.16 141 513 C141.66 513 142.32 513 143 513 C143 509.37 143 505.74 143 502 C143.99 502 144.98 502 146 502 C146 490.12 146 478.24 146 466 C157.55 466 169.1 466 181 466 C181.09297608 473.51814894 181.17225973 481.03421933 181.21972656 488.55249023 C181.23956062 491.09780723 181.26663627 493.64308047 181.30175781 496.18823242 C181.5228238 512.64789546 180.4946853 528.14143472 177.45082092 544.3210907 C176.86126637 547.82439567 176.51264448 551.32818959 176.21354675 554.86679077 C175.91649861 557.83413088 175.27551431 560.66980465 174.5625 563.5625 C174.29953125 564.65046875 174.0365625 565.7384375 173.765625 566.859375 C173.51296875 567.89578125 173.2603125 568.9321875 173 570 C172.5991288 571.76969969 172.20258669 573.54039191 171.8125 575.3125 C171.544375 576.529375 171.27625 577.74625 171 579 C170.34 579 169.68 579 169 579 C169.0928125 580.36125 169.0928125 580.36125 169.1875 581.75 C168.97053643 585.51070195 168.1917095 586.08815738 166 589 C165.1281393 591.01703196 164.3204247 593.06245081 163.5625 595.125 C162.91667969 596.84783203 162.91667969 596.84783203 162.2578125 598.60546875 C161.84273437 599.72566406 161.42765625 600.84585938 161 602 C158.80392592 607.87489891 156.489033 612.7664505 153 618 C151.54869159 621.29029509 150.25229149 624.62947077 149 628 C148.34 628 147.68 628 147 628 C146.938125 628.53625 146.87625 629.0725 146.8125 629.625 C145.64963209 633.02415236 143.34194932 635.35318154 141 638 C138.46645434 641.02390934 136.29136039 644.10917061 134.1875 647.4375 C131.71022088 651.22258129 129.07251281 653.92077181 125.5390625 656.71484375 C123.6916834 658.25745218 122.41393415 660.06514274 121 662 C120.34 662 119.68 662 119 662 C119 662.99 119 663.98 119 665 C118.34 665 117.68 665 117 665 C116.67 665.99 116.34 666.98 116 668 C115.34 668 114.68 668 114 668 C114 668.66 114 669.32 114 670 C112.68 670.33 111.36 670.66 110 671 C110 671.66 110 672.32 110 673 C108.68 673.33 107.36 673.66 106 674 C105.67 675.32 105.34 676.64 105 678 C104.34 678 103.68 678 103 678 C102.67 678.99 102.34 679.98 102 681 C101.2575 681.28875 100.515 681.5775 99.75 681.875 C96.7911428 682.87852816 96.7911428 682.87852816 94.4375 685.5625 C92.11136345 687.88863655 91.17909094 688.64676767 88 689 C88 689.66 88 690.32 88 691 C87.48953125 691.268125 86.9790625 691.53625 86.453125 691.8125 C81.84310674 694.29733254 77.53747386 696.98964602 73.25 700 C68.00673366 703.5670303 62.8086396 705.79887714 56.8515625 707.91015625 C53.44083377 709.21370874 50.94065722 710.86802352 48 713 C44.4828176 714.56717991 40.99381662 715.56097151 37.25 716.4375 C33.66773797 717.30263367 30.20814113 718.22979816 26.75 719.5 C22.17776662 721.07578758 17.52855678 721.96163643 12.76637268 722.77722168 C9.08403421 723.40883859 5.45064934 724.11015395 1.82397461 725.01000977 C-14.10606886 728.78274452 -30.08038736 728.61431018 -46.3449707 728.52148438 C-50.36412635 728.49879216 -54.38221634 728.51217113 -58.40133476 728.53526306 C-80.48933283 728.64259307 -101.3995005 726.99527896 -123 722 C-123.70788162 721.83706955 -124.41576324 721.6741391 -125.14509583 721.50627136 C-132.56989529 719.78656851 -139.74928401 717.95571024 -146.76953125 714.93359375 C-149.02722987 713.98860256 -151.29076494 713.23316381 -153.625 712.5 C-157.33908131 711.30338578 -160.65653735 709.70793603 -164.10546875 707.8984375 C-166.19941648 706.83749625 -166.19941648 706.83749625 -169.4375 706.0625 C-174.03640286 704.69089739 -177.89109566 702.44111777 -182 700 C-182 699.34 -182 698.68 -182 698 C-183.216875 697.690625 -184.43375 697.38125 -185.6875 697.0625 C-190.32773725 695.53552097 -194.07632201 693.19245143 -198.0625 690.4375 C-198.64668701 690.03732666 -199.23087402 689.63715332 -199.83276367 689.22485352 C-201.26413182 688.20689228 -202.63816017 687.10925748 -204 686 C-204 685.34 -204 684.68 -204 684 C-204.639375 683.896875 -205.27875 683.79375 -205.9375 683.6875 C-206.618125 683.460625 -207.29875 683.23375 -208 683 C-208.495 681.515 -208.495 681.515 -209 680 C-210.85744207 679.38932856 -210.85744207 679.38932856 -213 679 C-215.1875 678.125 -215.1875 678.125 -217 677 C-217.495 675.515 -217.495 675.515 -218 674 C-219.75881906 672.21744992 -219.75881906 672.21744992 -221.875 670.5 C-227.26125479 665.9683908 -227.26125479 665.9683908 -229 664 C-229 663.34 -229 662.68 -229 662 C-229.66 662 -230.32 662 -231 662 C-231 661.34 -231 660.68 -231 660 C-231.61875 659.690625 -232.2375 659.38125 -232.875 659.0625 C-234.25 658.375 -235.625 657.6875 -237 657 C-237 656.34 -237 655.68 -237 655 C-237.66 655 -238.32 655 -239 655 C-240.47265625 653.171875 -240.47265625 653.171875 -242.0625 650.75 C-242.58972656 649.96109375 -243.11695313 649.1721875 -243.66015625 648.359375 C-244.89430764 646.18611716 -245.54673055 644.43982072 -246 642 C-246.66 642 -247.32 642 -248 642 C-249.80258978 639.9720865 -250.92936664 638.18680664 -251.890625 635.64453125 C-253.05426221 632.8706496 -254.45987878 630.78601912 -256.25 628.375 C-259.9931986 623.14382184 -263.01083364 617.68574237 -266 612 C-267.05891083 610.03972361 -268.12135436 608.08135098 -269.1875 606.125 C-269.88939453 604.82949219 -269.88939453 604.82949219 -270.60546875 603.5078125 C-271.97425536 600.96859919 -271.97425536 600.96859919 -273.6328125 598.54296875 C-275.20194215 595.6243876 -275.48924383 593.47855249 -275.6875 590.1875 C-275.75324219 589.21167969 -275.81898438 588.23585938 -275.88671875 587.23046875 C-275.94279297 586.12638672 -275.94279297 586.12638672 -276 585 C-276.66 585 -277.32 585 -278 585 C-278 583.35 -278 581.7 -278 580 C-278.66 580 -279.32 580 -280 580 C-280.10957031 579.27554688 -280.21914063 578.55109375 -280.33203125 577.8046875 C-281.23545988 572.29597633 -282.35712979 567.95538164 -285 563 C-285.59131654 560.98952377 -286.06830059 558.97416542 -286.52734375 556.9296875 C-287.00175319 554.80858296 -287.00175319 554.80858296 -288.125 552.125 C-289.35344908 547.73768185 -289.1610099 543.52616708 -289 539 C-289.66 539 -290.32 539 -291 539 C-292.71703488 532.36079846 -293.38484826 525.98312112 -293.75390625 519.13671875 C-293.89320825 516.18105421 -293.89320825 516.18105421 -294.49588978 514.09951168 C-295.05121244 511.78671108 -295.20795976 509.64704166 -295.31185722 507.27109432 C-295.35316486 506.33551317 -295.39447249 505.39993202 -295.43703187 504.43599993 C-295.47576759 503.42449529 -295.51450331 502.41299065 -295.55441284 501.37083435 C-295.59654022 500.30545612 -295.6386676 499.24007789 -295.68207157 498.14241546 C-296.12062663 486.11740915 -296.14060091 474.09812268 -296.12939453 462.06665039 C-296.13075374 459.57215347 -296.13253656 457.07765675 -296.13470459 454.5831604 C-296.13874713 448.58227322 -296.13821772 442.58140351 -296.13529195 436.58051706 C-296.13301558 431.70695599 -296.13273494 426.83339842 -296.13381577 421.95983696 C-296.133969 421.26121105 -296.13412223 420.56258513 -296.13428011 419.84278874 C-296.13459987 418.42299029 -296.13492409 417.00319184 -296.1352527 415.58339339 C-296.13808622 402.35567309 -296.1348516 389.1279598 -296.12945233 375.90024065 C-296.12496345 364.55027091 -296.12578137 353.20031137 -296.13037109 341.8503418 C-296.13571554 328.62800553 -296.1378355 315.4056753 -296.13475883 302.18333811 C-296.1344403 300.77635888 -296.13412593 299.36937966 -296.13381577 297.96240044 C-296.13366149 297.27030096 -296.13350721 296.57820147 -296.13334826 295.86512928 C-296.13248441 290.98566213 -296.13394269 286.10619881 -296.13629532 281.22673225 C-296.13938197 274.68235965 -296.13720495 268.1380035 -296.13140106 261.59363174 C-296.1300728 259.18648371 -296.13046868 256.77933406 -296.13266373 254.37218666 C-296.13537192 251.10263987 -296.13199855 247.83315657 -296.12698364 244.56361389 C-296.12921436 243.59848769 -296.13144509 242.63336148 -296.13374341 241.63898903 C-296.13113566 240.77049967 -296.12852791 239.90201032 -296.12584114 239.0072031 C-296.12567879 238.25203862 -296.12551644 237.49687413 -296.12534916 236.71882588 C-296 235 -296 235 -295 234 C-293.21620275 233.89358678 -291.42818089 233.85756819 -289.64123535 233.84851074 C-288.47803268 233.84016708 -287.31483002 233.83182343 -286.11637878 233.82322693 C-284.18415215 233.8169503 -284.18415215 233.8169503 -282.21289062 233.81054688 C-280.8511784 233.80260814 -279.48946874 233.79422048 -278.12776184 233.78541565 C-275.18560017 233.76731165 -272.24344431 233.75231142 -269.30125427 233.73963928 C-264.63378346 233.7194138 -259.96637497 233.69175153 -255.2989502 233.66296387 C-246.20874265 233.60788118 -237.11850503 233.5598387 -228.02825165 233.51302338 C-216.51630158 233.45372372 -205.00436819 233.3929991 -193.49248075 233.32245111 C-189.62148576 233.29895406 -185.7505002 233.27736653 -181.87947083 233.26036072 C-157.71715357 235.1126606 -157.71715357 235.1126606 -135 231 C-133.64906012 230.74998491 -132.29067504 230.53933639 -130.9296875 230.3515625 C-130.115 230.23296875 -129.3003125 230.114375 -128.4609375 229.9921875 C-126.76103517 229.75081164 -125.06052022 229.51370463 -123.359375 229.28125 C-117.8569414 228.47054662 -113.17288432 227.02901928 -108 225 C-106.03786482 224.81011595 -104.07572029 224.62031125 -102.11328125 224.43359375 C-98.68406389 223.73000202 -95.84517229 221.97356475 -92.78125 220.328125 C-89.68077766 218.84756237 -86.61171427 217.89094266 -83.3125 216.9375 C-78.30894176 215.47935377 -74.36628646 213.81989334 -70 211 C-69.05125 210.46375 -68.1025 209.9275 -67.125 209.375 C-64.87576453 208.17484992 -64.87576453 208.17484992 -64 206 C-61.93359375 205.1484375 -61.93359375 205.1484375 -59.4375 204.375 C-58.61121094 204.11460937 -57.78492188 203.85421875 -56.93359375 203.5859375 C-56.29550781 203.39257812 -55.65742187 203.19921875 -55 203 C-55 202.34 -55 201.68 -55 201 C-54.38125 200.9175 -53.7625 200.835 -53.125 200.75 C-50.845288 200.22646928 -50.845288 200.22646928 -50.125 198.1796875 C-48.76207754 195.53902524 -47.16897628 194.25334295 -44.875 192.375 C-38.63748524 186.98987874 -33.83674315 180.66068905 -29.125 173.9375 C-27 171 -27 171 -25 170 C-24.334791 168.48367205 -23.74142648 166.93542268 -23.1875 165.375 C-21.91289094 161.99991159 -20.66821652 159.34277136 -18.375 156.5625 C-15.51905874 152.87685103 -15.05865137 149.13946088 -14.40234375 144.6015625 C-13.93711032 141.59335411 -13.07596425 138.84361981 -12 136 C-11.34 136 -10.68 136 -10 136 C-9.83564453 135.05640625 -9.83564453 135.05640625 -9.66796875 134.09375 C-8.88795666 129.882953 -8.07279483 125.9054948 -6.4375 121.9375 C-4.95169367 118.27151553 -4.49854263 114.8134159 -4.2109375 110.8828125 C-4 109 -4 109 -3 107 C-2.79581065 105.00348191 -2.63477704 103.00240179 -2.5 101 C-2.11111111 95.22222222 -2.11111111 95.22222222 -1 93 C-0.87713845 90.07158454 -0.81422856 87.16543602 -0.79467773 84.23583984 C-0.78477814 83.32846573 -0.77487854 82.42109161 -0.76467896 81.48622131 C-0.73301391 78.4778202 -0.70828676 75.46940327 -0.68359375 72.4609375 C-0.66302854 70.37870872 -0.64203219 68.29648416 -0.62062073 66.21426392 C-0.5653553 60.72667855 -0.51596576 55.23905524 -0.46777344 49.75140381 C-0.40877217 43.17097816 -0.34251965 36.59062205 -0.27747345 30.01025391 C-0.1794077 20.00687832 -0.09059009 10.00345867 0 0 Z " fill="#FDD702" transform="translate(590,144)"/>
<path d="M0 0 C12.54 0 25.08 0 38 0 C38.04010881 21.6275613 38.04010881 21.6275613 38.04882812 31.02929688 C38.05474707 37.38078676 38.06165565 43.7322619 38.07543945 50.08374023 C38.16104487 90.6501226 38.16104487 90.6501226 37.55859375 107.38671875 C37.51960464 108.48498489 37.48061554 109.58325104 37.44044495 110.71479797 C37.13338883 117.86661117 37.13338883 117.86661117 36 119 C35.73683577 120.79320631 35.53181931 122.59500971 35.3515625 124.3984375 C35.17367187 126.07873047 35.17367187 126.07873047 34.9921875 127.79296875 C34.75143935 130.14154379 34.51433078 132.49049539 34.28125 134.83984375 C33.49879085 142.15666922 32.16167274 148.96921999 30 156 C28.60709662 160.60802968 27.71239005 164.8359602 27.25 169.625 C26.41066255 176.33298488 24.90303707 182.68509103 23.0625 189.1875 C22.80952148 190.0964502 22.55654297 191.00540039 22.29589844 191.94189453 C22.04485352 192.80024902 21.79380859 193.65860352 21.53515625 194.54296875 C21.312229 195.30633545 21.08930176 196.06970215 20.85961914 196.85620117 C19.89934988 199.25101071 18.57692602 200.97077531 17 203 C16.29485154 205.14733927 16.29485154 205.14733927 16 207 C15.34 207 14.68 207 14 207 C13.9175 208.27875 13.835 209.5575 13.75 210.875 C12.81730899 219.24294608 8.82506971 226.61510263 5 234 C2.15071369 239.60123675 -0.60034873 245.19031797 -3 251 C-3.66 251 -4.32 251 -5 251 C-5.3403125 251.99 -5.3403125 251.99 -5.6875 253 C-7.3878815 256.88658628 -9.39623084 260.63679817 -12 264 C-12.66 264 -13.32 264 -14 264 C-14.309375 264.78375 -14.61875 265.5675 -14.9375 266.375 C-16 269 -16 269 -17 271 C-17.99 271.33 -18.98 271.66 -20 272 C-21.818092 273.75639375 -21.818092 273.75639375 -23.5625 275.875 C-24.16191406 276.57367188 -24.76132812 277.27234375 -25.37890625 277.9921875 C-27.13892666 280.10969449 -27.13892666 280.10969449 -29 283 C-29.66 283 -30.32 283 -31 283 C-31.268125 283.598125 -31.53625 284.19625 -31.8125 284.8125 C-34.1872506 289.18704058 -38.21967429 291.84972857 -42 295 C-42.5775 295.598125 -43.155 296.19625 -43.75 296.8125 C-45 298 -45 298 -47 298 C-47 298.66 -47 299.32 -47 300 C-48.4609375 301.2890625 -48.4609375 301.2890625 -50.375 302.625 C-51.00148438 303.07101562 -51.62796875 303.51703125 -52.2734375 303.9765625 C-54 305 -54 305 -56 305 C-56 305.66 -56 306.32 -56 307 C-57.0725 307.598125 -58.145 308.19625 -59.25 308.8125 C-61.40453641 310.03558027 -63.33064445 311.25021742 -65.3125 312.75 C-67 314 -67 314 -69 314 C-69 314.66 -69 315.32 -69 316 C-71.1171875 317.4375 -71.1171875 317.4375 -73.875 319 C-77.68883379 321.16744189 -77.68883379 321.16744189 -81 324 C-89.06169906 328.03084953 -98.16443853 330.36625467 -107 332 C-107 332.66 -107 333.32 -107 334 C-107.99 334.33 -108.98 334.66 -110 335 C-110.33 335.66 -110.66 336.32 -111 337 C-113.43409715 337.96894096 -115.82384525 338.82416068 -118.3125 339.625 C-118.98990234 339.85445313 -119.66730469 340.08390625 -120.36523438 340.3203125 C-123.78131304 341.44230901 -126.3665148 342 -130 342 C-130 342.66 -130 343.32 -130 344 C-130.89203125 344.13277344 -131.7840625 344.26554687 -132.703125 344.40234375 C-133.87359375 344.57894531 -135.0440625 344.75554687 -136.25 344.9375 C-137.41015625 345.11152344 -138.5703125 345.28554688 -139.765625 345.46484375 C-142.82880524 345.91721887 -142.82880524 345.91721887 -145.09375 346.5625 C-147.51661479 347.11856733 -149.76755354 347.09516377 -152.25 347.0625 C-153.14203125 347.05347656 -154.0340625 347.04445313 -154.953125 347.03515625 C-155.96632813 347.01775391 -155.96632813 347.01775391 -157 347 C-157 347.66 -157 348.32 -157 349 C-163.79886719 350.76266927 -170.54773843 351.574858 -177.52685547 352.21435547 C-178.27467285 352.28799316 -179.02249023 352.36163086 -179.79296875 352.4375 C-180.4583667 352.49808594 -181.12376465 352.55867188 -181.80932617 352.62109375 C-184.12690833 352.95240544 -184.12690833 352.95240544 -186.70420837 354.00949097 C-190.28974141 355.08707816 -193.18500973 355.24094792 -196.92333984 355.22705078 C-197.91951828 355.22748886 -197.91951828 355.22748886 -198.93582153 355.22793579 C-201.11099737 355.22655261 -203.28582218 355.21103988 -205.4609375 355.1953125 C-206.97693698 355.19157876 -208.49293889 355.18873349 -210.00894165 355.18673706 C-213.98409782 355.17912902 -217.95910606 355.1595051 -221.9342041 355.1373291 C-225.9964803 355.11680948 -230.05878058 355.1077223 -234.12109375 355.09765625 C-242.08079678 355.07625631 -250.04037995 355.04215485 -258 355 C-257.96269189 374.76834815 -257.902625 394.53650545 -257.81609726 414.30470085 C-257.77643311 423.48520035 -257.74397692 432.66561569 -257.72900391 441.84619141 C-257.71592149 449.85600195 -257.68879076 457.86562635 -257.64538693 465.875332 C-257.62291895 470.10917143 -257.60708039 474.34278254 -257.60811615 478.57668686 C-258.13240957 505.23246644 -258.13240957 505.23246644 -251.37738037 530.73654175 C-249.94851129 534.12199337 -249.73443473 536.37060801 -250 540 C-249.34 540 -248.68 540 -248 540 C-247.505 545.445 -247.505 545.445 -247 551 C-246.34 551 -245.68 551 -245 551 C-244.15615325 552.41042956 -243.32530504 553.82864132 -242.5 555.25 C-242.0359375 556.03890625 -241.571875 556.8278125 -241.09375 557.640625 C-240 560 -240 560 -240 564 C-239.34 564 -238.68 564 -238 564 C-238 564.66 -238 565.32 -238 566 C-237.34 566 -236.68 566 -236 566 C-232 572.75 -232 572.75 -232 575 C-231.39800781 575.09152344 -230.79601562 575.18304687 -230.17578125 575.27734375 C-227.4478921 576.18337516 -226.83665217 577.24096622 -225.1875 579.5625 C-220.48220588 585.20885294 -214.32904569 587.98010129 -207.82324219 591.11572266 C-206.21426501 591.8960809 -204.62489027 592.71658093 -203.0390625 593.54296875 C-197.02964577 596.54767711 -191.41527291 597.83951047 -184.75 598.640625 C-182 599 -182 599 -179 600 C-176.34105893 600.08494728 -173.70914623 600.11594796 -171.05078125 600.09765625 C-170.27816452 600.0962413 -169.50554779 600.09482635 -168.70951843 600.09336853 C-166.24380611 600.08777466 -163.77818485 600.07522333 -161.3125 600.0625 C-159.63997527 600.05748421 -157.96744912 600.05292144 -156.29492188 600.04882812 C-152.19657954 600.03780724 -148.09830521 600.02054684 -144 600 C-144 599.34 -144 598.68 -144 598 C-142.76636719 597.74476563 -142.76636719 597.74476563 -141.5078125 597.484375 C-131.40418969 595.29097882 -122.70802827 592.22690247 -113.8125 586.953125 C-112 586 -112 586 -110 586 C-109.6596875 585.1646875 -109.6596875 585.1646875 -109.3125 584.3125 C-107.62632969 581.34162851 -105.44612884 579.39177042 -103 577 C-101.26013215 575.00532313 -99.54570831 572.99194033 -97.84375 570.96484375 C-96 569 -96 569 -93.48046875 567.19140625 C-90.35659301 564.43157273 -89.33745456 561.85940243 -87.8125 558 C-85.00954912 551.01850758 -85.00954912 551.01850758 -83.86328125 548.796875 C-82.51504109 545.99058326 -82.35375681 543.06589238 -82 540 C-81.34 540 -80.68 540 -80 540 C-79.87625 539.33355469 -79.7525 538.66710937 -79.625 537.98046875 C-78.73180588 533.7210493 -77.59852095 529.52225671 -76.4609375 525.32226562 C-74.19076841 516.55500814 -73.85696167 507.67091124 -73.71875 498.65234375 C-73.68101434 496.72981722 -73.64325322 494.80729119 -73.60546875 492.88476562 C-73.55152848 489.88910093 -73.49924226 486.89341288 -73.44775391 483.89770508 C-73.39625758 480.98249357 -73.33899808 478.06743703 -73.28125 475.15234375 C-73.26767456 474.24830307 -73.25409912 473.34426239 -73.2401123 472.41282654 C-73.1130001 466.1130001 -73.1130001 466.1130001 -72 465 C-68.97043757 464.91129359 -65.9631329 464.88473418 -62.93359375 464.90234375 C-62.1286145 464.90335083 -61.32363525 464.90435791 -60.4942627 464.90539551 C-57.47532739 464.91064386 -54.45641233 464.924605 -51.4375 464.9375 C-44.693125 464.958125 -37.94875 464.97875 -31 465 C-31 480.18 -31 495.36 -31 511 C-31.66 511 -32.32 511 -33 511 C-33 514.63 -33 518.26 -33 522 C-33.99 522 -34.98 522 -36 522 C-36 524.97 -36 527.94 -36 531 C-36.66 531 -37.32 531 -38 531 C-38 534.63 -38 538.26 -38 542 C-38.66 542 -39.32 542 -40 542 C-40 544.31 -40 546.62 -40 549 C-40.66 549 -41.32 549 -42 549 C-42 550.32 -42 551.64 -42 553 C-42.99 553 -43.98 553 -45 553 C-45 555.31 -45 557.62 -45 560 C-45.66 560 -46.32 560 -47 560 C-47 561.32 -47 562.64 -47 564 C-47.66 564 -48.32 564 -49 564 C-49 565.65 -49 567.3 -49 569 C-49.66 569 -50.32 569 -51 569 C-51 570.32 -51 571.64 -51 573 C-51.66 573 -52.32 573 -53 573 C-53 574.65 -53 576.3 -53 578 C-53.99 578 -54.98 578 -56 578 C-56 578.66 -56 579.32 -56 580 C-56.66 580 -57.32 580 -58 580 C-58 581.32 -58 582.64 -58 584 C-58.66 584 -59.32 584 -60 584 C-60 584.66 -60 585.32 -60 586 C-60.66 586 -61.32 586 -62 586 C-62 586.99 -62 587.98 -62 589 C-62.99 589 -63.98 589 -65 589 C-65 590.32 -65 591.64 -65 593 C-65.66 593 -66.32 593 -67 593 C-67 593.66 -67 594.32 -67 595 C-67.66 595 -68.32 595 -69 595 C-69 595.99 -69 596.98 -69 598 C-69.66 598 -70.32 598 -71 598 C-71 598.66 -71 599.32 -71 600 C-71.99 600 -72.98 600 -74 600 C-74 600.66 -74 601.32 -74 602 C-74.66 602 -75.32 602 -76 602 C-76 602.66 -76 603.32 -76 604 C-76.66 604 -77.32 604 -78 604 C-78 604.66 -78 605.32 -78 606 C-78.66 606 -79.32 606 -80 606 C-80 606.99 -80 607.98 -80 609 C-81.65 609 -83.3 609 -85 609 C-85 609.66 -85 610.32 -85 611 C-85.66 611 -86.32 611 -87 611 C-87 611.66 -87 612.32 -87 613 C-87.66 613 -88.32 613 -89 613 C-89 613.66 -89 614.32 -89 615 C-90.65 615 -92.3 615 -94 615 C-94 615.99 -94 616.98 -94 618 C-94.66 618 -95.32 618 -96 618 C-96 618.66 -96 619.32 -96 620 C-97.32 620 -98.64 620 -100 620 C-100 620.66 -100 621.32 -100 622 C-101.65 622 -103.3 622 -105 622 C-105 622.66 -105 623.32 -105 624 C-106.32 624 -107.64 624 -109 624 C-109 624.66 -109 625.32 -109 626 C-111.31 626 -113.62 626 -116 626 C-116 626.99 -116 627.98 -116 629 C-118.31 629 -120.62 629 -123 629 C-123 629.66 -123 630.32 -123 631 C-124.32 631 -125.64 631 -127 631 C-127 631.66 -127 632.32 -127 633 C-129.97 633 -132.94 633 -136 633 C-136 633.66 -136 634.32 -136 635 C-155.8 635 -175.6 635 -196 635 C-196 634.34 -196 633.68 -196 633 C-198.97 633 -201.94 633 -205 633 C-205 632.34 -205 631.68 -205 631 C-207.97 631 -210.94 631 -214 631 C-214 630.34 -214 629.68 -214 629 C-216.31 629 -218.62 629 -221 629 C-221 628.01 -221 627.02 -221 626 C-222.98 626 -224.96 626 -227 626 C-227 625.34 -227 624.68 -227 624 C-227.66 624 -228.32 624 -229 624 C-229 623.34 -229 622.68 -229 622 C-231.31 622 -233.62 622 -236 622 C-236 621.34 -236 620.68 -236 620 C-236.66 620 -237.32 620 -238 620 C-238 619.34 -238 618.68 -238 618 C-238.99 618 -239.98 618 -241 618 C-241 617.01 -241 616.02 -241 615 C-242.32 615 -243.64 615 -245 615 C-245 614.34 -245 613.68 -245 613 C-245.66 613 -246.32 613 -247 613 C-247 612.34 -247 611.68 -247 611 C-247.66 611 -248.32 611 -249 611 C-249 610.34 -249 609.68 -249 609 C-249.99 609 -250.98 609 -252 609 C-252 608.01 -252 607.02 -252 606 C-253.32 606 -254.64 606 -256 606 C-256 605.34 -256 604.68 -256 604 C-256.66 604 -257.32 604 -258 604 C-258 603.34 -258 602.68 -258 602 C-258.99 602 -259.98 602 -261 602 C-261 601.34 -261 600.68 -261 600 C-261.66 600 -262.32 600 -263 600 C-263 598.35 -263 596.7 -263 595 C-264.32 595 -265.64 595 -267 595 C-267 593.68 -267 592.36 -267 591 C-267.99 591 -268.98 591 -270 591 C-270 590.34 -270 589.68 -270 589 C-270.66 589 -271.32 589 -272 589 C-272 587.35 -272 585.7 -272 584 C-272.66 584 -273.32 584 -274 584 C-274 583.34 -274 582.68 -274 582 C-274.66 582 -275.32 582 -276 582 C-276 580.68 -276 579.36 -276 578 C-276.66 578 -277.32 578 -278 578 C-278 576.35 -278 574.7 -278 573 C-278.99 573 -279.98 573 -281 573 C-281 571.68 -281 570.36 -281 569 C-281.66 569 -282.32 569 -283 569 C-283 567.35 -283 565.7 -283 564 C-283.66 564 -284.32 564 -285 564 C-285 562.68 -285 561.36 -285 560 C-285.66 560 -286.32 560 -287 560 C-287 558.35 -287 556.7 -287 555 C-287.99 555 -288.98 555 -290 555 C-290 553.02 -290 551.04 -290 549 C-290.66 549 -291.32 549 -292 549 C-292 546.69 -292 544.38 -292 542 C-292.66 542 -293.32 542 -294 542 C-294 539.03 -294 536.06 -294 533 C-294.66 533 -295.32 533 -296 533 C-296 530.03 -296 527.06 -296 524 C-296.66 524 -297.32 524 -298 524 C-298 520.37 -298 516.74 -298 513 C-298.99 513 -299.98 513 -301 513 C-301 507.06 -301 501.12 -301 495 C-301.66 495 -302.32 495 -303 495 C-303 435.6 -303 376.2 -303 315 C-267.69 315 -232.38 315 -196 315 C-196 314.34 -196 313.68 -196 313 C-190.06 313 -184.12 313 -178 313 C-178 312.34 -178 311.68 -178 311 C-175.03 311 -172.06 311 -169 311 C-169 310.01 -169 309.02 -169 308 C-165.37 308 -161.74 308 -158 308 C-158 307.34 -158 306.68 -158 306 C-154.37 306 -150.74 306 -147 306 C-147 305.34 -147 304.68 -147 304 C-144.69 304 -142.38 304 -140 304 C-140 303.34 -140 302.68 -140 302 C-138.68 302 -137.36 302 -136 302 C-136 301.01 -136 300.02 -136 299 C-133.03 299 -130.06 299 -127 299 C-127 298.34 -127 297.68 -127 297 C-126.34 297 -125.68 297 -125 297 C-125 296.34 -125 295.68 -125 295 C-122.69 295 -120.38 295 -118 295 C-118 294.34 -118 293.68 -118 293 C-115.69 293 -113.38 293 -111 293 C-111 292.34 -111 291.68 -111 291 C-109.68 291 -108.36 291 -107 291 C-107 290.01 -107 289.02 -107 288 C-106.34 288 -105.68 288 -105 288 C-105 287.34 -105 286.68 -105 286 C-103.35 286 -101.7 286 -100 286 C-100 285.34 -100 284.68 -100 284 C-98.68 284 -97.36 284 -96 284 C-96 283.34 -96 282.68 -96 282 C-94.35 282 -92.7 282 -91 282 C-91 281.01 -91 280.02 -91 279 C-90.34 279 -89.68 279 -89 279 C-89 278.34 -89 277.68 -89 277 C-88.34 277 -87.68 277 -87 277 C-87 276.34 -87 275.68 -87 275 C-85.35 275 -83.7 275 -82 275 C-82 274.34 -82 273.68 -82 273 C-81.34 273 -80.68 273 -80 273 C-80 272.34 -80 271.68 -80 271 C-78.68 271 -77.36 271 -76 271 C-76 270.01 -76 269.02 -76 268 C-75.34 268 -74.68 268 -74 268 C-74 267.34 -74 266.68 -74 266 C-73.01 266 -72.02 266 -71 266 C-71 265.34 -71 264.68 -71 264 C-70.34 264 -69.68 264 -69 264 C-69 263.34 -69 262.68 -69 262 C-68.34 262 -67.68 262 -67 262 C-67 261.01 -67 260.02 -67 259 C-66.34 259 -65.68 259 -65 259 C-65 258.34 -65 257.68 -65 257 C-64.01 257 -63.02 257 -62 257 C-62 256.34 -62 255.68 -62 255 C-61.34 255 -60.68 255 -60 255 C-60 254.34 -60 253.68 -60 253 C-59.34 253 -58.68 253 -58 253 C-58 252.34 -58 251.68 -58 251 C-57.34 251 -56.68 251 -56 251 C-56 250.01 -56 249.02 -56 248 C-55.01 248 -54.02 248 -53 248 C-53 247.34 -53 246.68 -53 246 C-52.34 246 -51.68 246 -51 246 C-51 245.34 -51 244.68 -51 244 C-50.34 244 -49.68 244 -49 244 C-49 242.35 -49 240.7 -49 239 C-48.34 239 -47.68 239 -47 239 C-47 238.34 -47 237.68 -47 237 C-46.34 237 -45.68 237 -45 237 C-45 236.34 -45 235.68 -45 235 C-44.01 235 -43.02 235 -42 235 C-42 233.68 -42 232.36 -42 231 C-41.34 231 -40.68 231 -40 231 C-40 230.01 -40 229.02 -40 228 C-39.34 228 -38.68 228 -38 228 C-38 226.68 -38 225.36 -38 224 C-37.34 224 -36.68 224 -36 224 C-36 223.34 -36 222.68 -36 222 C-35.01 222 -34.02 222 -33 222 C-33 220.35 -33 218.7 -33 217 C-32.34 217 -31.68 217 -31 217 C-31 215.68 -31 214.36 -31 213 C-30.34 213 -29.68 213 -29 213 C-29 211.35 -29 209.7 -29 208 C-28.34 208 -27.68 208 -27 208 C-27 206.68 -27 205.36 -27 204 C-26.34 204 -25.68 204 -25 204 C-25 202.35 -25 200.7 -25 199 C-24.01 199 -23.02 199 -22 199 C-22 197.68 -22 196.36 -22 195 C-21.34 195 -20.68 195 -20 195 C-20 192.69 -20 190.38 -20 188 C-19.34 188 -18.68 188 -18 188 C-18 186.68 -18 185.36 -18 184 C-17.34 184 -16.68 184 -16 184 C-16 182.35 -16 180.7 -16 179 C-15.01 179 -14.02 179 -13 179 C-13 176.03 -13 173.06 -13 170 C-12.34 170 -11.68 170 -11 170 C-11 167.36 -11 164.72 -11 162 C-10.34 162 -9.68 162 -9 162 C-9 159.03 -9 156.06 -9 153 C-8.34 153 -7.68 153 -7 153 C-7 149.37 -7 145.74 -7 142 C-6.01 142 -5.02 142 -4 142 C-4 136.72 -4 131.44 -4 126 C-3.34 126 -2.68 126 -2 126 C-2 120.72 -2 115.44 -2 110 C-1.34 110 -0.68 110 0 110 C0 73.7 0 37.4 0 0 Z " fill="#FDD601" transform="translate(700,144)"/>
<path d="M0 0 C52.47 0 104.94 0 159 0 C159 40.26 159 80.52 159 122 C106.53 122 54.06 122 0 122 C0 81.74 0 41.48 0 0 Z " fill="#FED601" transform="translate(291,144)"/>
<path d="M0 0 C36.3 0 72.6 0 110 0 C110 25.08 110 50.16 110 76 C82.83742301 76.04010881 82.83742301 76.04010881 71.30273438 76.04882812 C63.41690401 76.05481732 55.53108519 76.06191965 47.64526367 76.07543945 C41.29107982 76.08626578 34.93690835 76.09227629 28.58271599 76.09487724 C26.15250389 76.09673195 23.72229251 76.10035343 21.29208565 76.10573006 C17.90117019 76.11293711 14.51030659 76.11399108 11.11938477 76.11352539 C10.10374954 76.11712067 9.08811432 76.12071594 8.04170227 76.12442017 C7.12318481 76.1230455 6.20466736 76.12167084 5.25831604 76.12025452 C4.45543435 76.12117631 3.65255266 76.1220981 2.82534122 76.12304783 C1 76 1 76 0 75 C-0.09492895 72.65741937 -0.12558483 70.34457881 -0.11352539 68.00170898 C-0.11364593 67.25817452 -0.11376646 66.51464006 -0.11389065 65.74857426 C-0.11314159 63.33105079 -0.10551371 60.9136035 -0.09765625 58.49609375 C-0.09618681 57.00785357 -0.09516611 55.51961287 -0.09460449 54.03137207 C-0.08935187 48.50007352 -0.07539078 42.96878602 -0.0625 37.4375 C-0.041875 25.083125 -0.02125 12.72875 0 0 Z " fill="#26AB54" transform="translate(315,167)"/>
<path d="M0 0 C38.94 0 77.88 0 118 0 C118 0.99 118 1.98 118 3 C79.72 3 41.44 3 2 3 C2 79.23 2 155.46 2 234 C1.34 234 0.68 234 0 234 C0 156.78 0 79.56 0 0 Z " fill="#33AE41" transform="translate(330,403)"/>
<path d="M0 0 C26.4 0 52.8 0 80 0 C80 0.66 80 1.32 80 2 C54.26 2 28.52 2 2 2 C2 60.74 2 119.48 2 180 C1.34 180 0.68 180 0 180 C0 120.6 0 61.2 0 0 Z " fill="#CCCC0F" transform="translate(397,459)"/>
<path d="M0 0 C0 0.33 0 0.66 0 1 C-6.79886719 2.76266927 -13.54773843 3.574858 -20.52685547 4.21435547 C-21.64858154 4.32481201 -21.64858154 4.32481201 -22.79296875 4.4375 C-23.4583667 4.49808594 -24.12376465 4.55867188 -24.80932617 4.62109375 C-27.61077909 5.10564239 -30.30284719 6.10094906 -33 7 C-55.44 7 -77.88 7 -101 7 C-101 53.53 -101 100.06 -101 148 C-101.66 148 -102.32 148 -103 148 C-103.02332804 129.63315619 -103.04097871 111.2663162 -103.05181217 92.89946079 C-103.05697533 84.37201506 -103.06401841 75.84457851 -103.07543945 67.31713867 C-103.08538568 59.88733745 -103.09185328 52.45754287 -103.09408849 45.02773517 C-103.09539571 41.0912668 -103.09848221 37.15481747 -103.10573006 33.21835518 C-103.11248931 29.51746673 -103.11461716 25.81660525 -103.11310768 22.11571121 C-103.11351638 20.10129198 -103.11891207 18.08687573 -103.12442017 16.07246399 C-103.1230455 14.8846936 -103.12167084 13.69692322 -103.12025452 12.47315979 C-103.12117631 11.4342991 -103.1220981 10.3954384 -103.12304783 9.32509708 C-103 7 -103 7 -102 6 C-100.33393508 5.88224667 -98.66299416 5.83268698 -96.99291992 5.81054688 C-95.39071846 5.78547058 -95.39071846 5.78547058 -93.75614929 5.7598877 C-92.59267471 5.74631226 -91.42920013 5.73273682 -90.23046875 5.71875 C-89.04278397 5.70034058 -87.85509918 5.68193115 -86.63142395 5.66296387 C-82.8168348 5.60399595 -79.00219961 5.55129411 -75.1875 5.5 C-70.18089357 5.43239865 -65.17443193 5.3586644 -60.16796875 5.28125 C-59.01056686 5.26767456 -57.85316498 5.25409912 -56.66069031 5.2401123 C-55.58309952 5.22339478 -54.50550873 5.20667725 -53.39526367 5.18945312 C-52.44785812 5.17692505 -51.50045258 5.16439697 -50.52433777 5.15148926 C-48.19793248 5.01187822 -46.24064103 4.59953504 -44 4 C-40.74139614 3.74799197 -37.48824688 3.55939227 -34.22460938 3.39453125 C-30.82122833 3.48829728 -30.82122833 3.48829728 -28 2 C-25.01722267 1.78841382 -22.04908798 1.62358295 -19.0625 1.5 C-17.40737601 1.43119577 -15.75240929 1.35846293 -14.09765625 1.28125 C-12.99176147 1.23581055 -12.99176147 1.23581055 -11.86352539 1.18945312 C-0.14125034 -0.00227823 -0.14125034 -0.00227823 0 0 Z " fill="#FFE03F" transform="translate(543,492)"/>
<path d="M0 0 C38.94 0 77.88 0 118 0 C118 0.99 118 1.98 118 3 C79.72 3 41.44 3 2 3 C1.67 4.32 1.34 5.64 1 7 C0.67 7 0.34 7 0 7 C0 4.69 0 2.38 0 0 Z " fill="#45B143" transform="translate(330,403)"/>
<path d="M0 0 C8.29274802 -0.02315955 16.58548254 -0.04093355 24.87825489 -0.05181217 C28.72882542 -0.05703308 32.57937384 -0.06411638 36.42993164 -0.07543945 C40.14519659 -0.08629644 43.86044025 -0.09228282 47.57571983 -0.09487724 C48.99390689 -0.09672641 50.41209276 -0.10033731 51.83027077 -0.10573006 C53.81497692 -0.11297764 55.79970444 -0.11340838 57.78442383 -0.11352539 C58.91471512 -0.115746 60.04500641 -0.11796661 61.20954895 -0.12025452 C64 0 64 0 67 1 C67 13.21 67 25.42 67 38 C66.01 38 65.02 38 64 38 C64 26.12 64 14.24 64 2 C42.88 2 21.76 2 0 2 C0 1.34 0 0.68 0 0 Z " fill="#92CC75" transform="translate(669,608)"/>
<path d="M0 0 C6.91563842 -0.21724519 13.27330729 0.085979 20.046875 1.4921875 C24.74479845 2.30003148 29.47118014 2.50117986 34.2265625 2.75390625 C37 3 37 3 38 4 C39.84031989 4.12337174 41.68529411 4.17791308 43.52954102 4.20532227 C44.71068985 4.22526749 45.89183868 4.24521271 47.10877991 4.26576233 C48.3941716 4.28247482 49.67956329 4.29918732 51.00390625 4.31640625 C52.31205795 4.33718735 53.62020966 4.35796844 54.96800232 4.37937927 C58.45155447 4.434663 61.9351666 4.48404431 65.41882324 4.53222656 C68.9713273 4.58239574 72.5237439 4.63810567 76.07617188 4.69335938 C83.05070546 4.80101791 90.02531798 4.90244567 97 5 C97 4.34 97 3.68 97 3 C105.91 2.67 114.82 2.34 124 2 C124 2.33 124 2.66 124 3 C107.83529517 6.87722498 91.39290144 6.49512794 74.88134766 6.44604492 C71.64117496 6.43689304 68.40172545 6.44370107 65.16162109 6.46655273 C46.21531874 6.5996495 28.09835005 6.02101411 9.41894531 2.45046997 C6.28937887 1.86766403 3.15519271 1.41939235 0 1 C0 0.67 0 0.34 0 0 Z " fill="#FFE55C" transform="translate(469,866)"/>
<path d="M0 0 C0.33 0 0.66 0 1 0 C1.0234348 11.39861263 1.04107051 22.79721928 1.05181217 34.19585133 C1.05697424 39.49182311 1.0639463 44.78777811 1.07543945 50.08374023 C1.16104487 90.6501226 1.16104487 90.6501226 0.55859375 107.38671875 C0.50011009 109.03411797 0.50011009 109.03411797 0.44044495 110.71479797 C0.13338883 117.86661117 0.13338883 117.86661117 -1 119 C-1.23427778 121.01594582 -1.41336124 123.038474 -1.5625 125.0625 C-1.64628906 126.16722656 -1.73007812 127.27195312 -1.81640625 128.41015625 C-1.87699219 129.26480469 -1.93757812 130.11945313 -2 131 C-2.33 131 -2.66 131 -3 131 C-3.02888146 127.68751813 -3.04675799 124.37506833 -3.0625 121.0625 C-3.07087891 120.11697266 -3.07925781 119.17144531 -3.08789062 118.19726562 C-3.09111328 117.29814453 -3.09433594 116.39902344 -3.09765625 115.47265625 C-3.10289307 114.64000244 -3.10812988 113.80734863 -3.11352539 112.94946289 C-3 111 -3 111 -2 110 C-1.84890063 107.60928082 -1.76359332 105.24520199 -1.71875 102.8515625 C-1.69161171 101.69390633 -1.69161171 101.69390633 -1.66392517 100.51286316 C-1.60410297 97.88366224 -1.55190947 95.25436831 -1.5 92.625 C-1.45987692 90.76391256 -1.41958905 88.90282866 -1.37915039 87.04174805 C-0.76815548 58.03092088 -0.40202484 29.01433129 0 0 Z " fill="#FFD914" transform="translate(737,144)"/>
<path d="M0 0 C0.33 0 0.66 0 1 0 C1.02313297 12.09114871 1.04091998 24.18229218 1.05181217 36.27345848 C1.0570389 41.88739171 1.06413276 47.50130984 1.07543945 53.11523438 C1.08627576 58.52926406 1.09227842 63.94327919 1.09487724 69.35731888 C1.09673014 71.42665461 1.10034819 73.4959895 1.10573006 75.56531906 C1.11295032 78.45551041 1.11399052 81.34564099 1.11352539 84.23583984 C1.11712067 85.09826797 1.12071594 85.96069611 1.12442017 86.84925842 C1.11405216 92.77189568 1.11405216 92.77189568 0 95 C-0.20418935 96.99651809 -0.36522296 98.99759821 -0.5 101 C-0.88888889 106.77777778 -0.88888889 106.77777778 -2 109 C-2.27024708 111.29924497 -2.44497841 113.59801487 -2.62109375 115.90625 C-3 118 -3 118 -5 120 C-4.85978195 117.35375716 -4.71310224 114.70815422 -4.5625 112.0625 C-4.52318359 111.30775391 -4.48386719 110.55300781 -4.44335938 109.77539062 C-4.11328125 104.11328125 -4.11328125 104.11328125 -3 103 C-2.85364765 100.97577355 -2.77254982 98.94676576 -2.71875 96.91796875 C-2.68136719 95.67595703 -2.64398437 94.43394531 -2.60546875 93.15429688 C-2.57066406 91.84525391 -2.53585937 90.53621094 -2.5 89.1875 C-2.43108171 86.61837921 -2.35832996 84.04935762 -2.28125 81.48046875 C-2.25095703 80.33473389 -2.22066406 79.18899902 -2.18945312 78.00854492 C-2 75 -2 75 -1.50099182 73.24769592 C-0.81192888 70.15622039 -0.83398111 67.19504917 -0.79467773 64.02832031 C-0.78477814 63.3352327 -0.77487854 62.64214508 -0.76467896 61.92805481 C-0.73317581 59.64477922 -0.70835098 57.36148286 -0.68359375 55.078125 C-0.66301455 53.491999 -0.64201782 51.90587836 -0.62062073 50.31976318 C-0.56549979 46.15069939 -0.51604663 41.98158692 -0.46777344 37.81243896 C-0.41748544 33.55590497 -0.36183751 29.29944142 -0.30664062 25.04296875 C-0.19918113 16.69537211 -0.0977092 8.34771643 0 0 Z " fill="#FFEB83" transform="translate(589,144)"/>
<path d="M0 0 C1.36088895 4.08266686 0.68398693 6.75928101 0 11 C-0.33 11.33 -0.66 11.66 -1 12 C-1.20775561 13.66204487 -1.36718255 15.33029491 -1.5 17 C-1.88888889 21.88888889 -1.88888889 21.88888889 -3 23 C-3.352753 24.82601552 -3.65662656 26.66155569 -3.9375 28.5 C-4.76883925 33.72556101 -5.79788767 38.84809003 -7 44 C-7.66 44 -8.32 44 -9 44 C-8.938125 45.546875 -8.938125 45.546875 -8.875 47.125 C-8.99575149 50.86829627 -9.64872018 53.53734547 -11 57 C-11.66 57 -12.32 57 -13 57 C-13 58.32 -13 59.64 -13 61 C-13.66 61 -14.32 61 -15 61 C-15.185625 61.9590625 -15.185625 61.9590625 -15.375 62.9375 C-15.684375 64.4534375 -15.684375 64.4534375 -16 66 C-16.1340625 66.75925781 -16.268125 67.51851563 -16.40625 68.30078125 C-16.5609375 69.10902344 -16.715625 69.91726563 -16.875 70.75 C-17.01679687 71.52859375 -17.15859375 72.3071875 -17.3046875 73.109375 C-17.53414062 73.73328125 -17.76359375 74.3571875 -18 75 C-19.485 75.495 -19.485 75.495 -21 76 C-20.09276387 71.31261335 -19.0452733 66.65806256 -18 62 C-17.34 62 -16.68 62 -16 62 C-15.9175 61.360625 -15.835 60.72125 -15.75 60.0625 C-15.1155779 57.47194307 -14.41207734 55.72258365 -13.25 53.375 C-8.5737626 43.16607146 -5.80249402 31.38448927 -5.16796875 20.203125 C-4.92137542 16.96873804 -3.99020594 14.08064069 -3 11 C-2.45122411 9.02279275 -1.9099912 7.04348155 -1.375 5.0625 C-1.11460937 4.10472656 -0.85421875 3.14695312 -0.5859375 2.16015625 C-0.39257812 1.44730469 -0.19921875 0.73445313 0 0 Z " fill="#FFF5C3" transform="translate(732,289)"/>
<path d="M0 0 C0.99 0 1.98 0 3 0 C3 12.21 3 24.42 3 37 C2.01 37 1.02 37 0 37 C0 24.79 0 12.58 0 0 Z " fill="#8DC029" transform="translate(733,609)"/>
<path d="M0 0 C0 0.33 0 0.66 0 1 C-6.79886719 2.76266927 -13.54773843 3.574858 -20.52685547 4.21435547 C-21.64858154 4.32481201 -21.64858154 4.32481201 -22.79296875 4.4375 C-23.4583667 4.49808594 -24.12376465 4.55867188 -24.80932617 4.62109375 C-27.12860906 4.95120512 -27.12860906 4.95120512 -29.70678711 6.02294922 C-33.86761495 7.25740937 -37.58632572 7.2509362 -41.8984375 7.1953125 C-43.15087753 7.19106766 -43.15087753 7.19106766 -44.42861938 7.18673706 C-47.07756291 7.17560301 -49.72615984 7.15051127 -52.375 7.125 C-54.17838051 7.11496143 -55.98176636 7.10583712 -57.78515625 7.09765625 C-62.19023633 7.0756859 -66.59505953 7.04120321 -71 7 C-71 6.67 -71 6.34 -71 6 C-70.32420898 5.97494385 -69.64841797 5.9498877 -68.95214844 5.92407227 C-65.8845832 5.80789258 -62.81730842 5.68526563 -59.75 5.5625 C-58.68652344 5.52318359 -57.62304688 5.48386719 -56.52734375 5.44335938 C-55.50253906 5.40146484 -54.47773438 5.35957031 -53.421875 5.31640625 C-52.47924805 5.27974854 -51.53662109 5.24309082 -50.56542969 5.20532227 C-48.24635564 5.01971689 -46.24003309 4.59048836 -44 4 C-40.74139614 3.74799197 -37.48824688 3.55939227 -34.22460938 3.39453125 C-30.82122833 3.48829728 -30.82122833 3.48829728 -28 2 C-25.01722267 1.78841382 -22.04908798 1.62358295 -19.0625 1.5 C-17.40737601 1.43119577 -15.75240929 1.35846293 -14.09765625 1.28125 C-13.36039307 1.25095703 -12.62312988 1.22066406 -11.86352539 1.18945312 C-0.14125034 -0.00227823 -0.14125034 -0.00227823 0 0 Z " fill="#FFE664" transform="translate(543,492)"/>
<path d="M0 0 C1.27810547 0.46212891 1.27810547 0.46212891 2.58203125 0.93359375 C5.97276475 1.9915026 9.1732186 2.57678631 12.6875 3.0625 C15.9583851 3.51899031 18.86506101 3.95502034 22 5 C24.06362991 5.15029988 26.13123915 5.24844448 28.19921875 5.31640625 C30.01196289 5.37924805 30.01196289 5.37924805 31.86132812 5.44335938 C33.12396484 5.48267578 34.38660156 5.52199219 35.6875 5.5625 C37.59885742 5.62727539 37.59885742 5.62727539 39.54882812 5.69335938 C42.69910852 5.7995486 45.84946839 5.90159533 49 6 C49 6.66 49 7.32 49 8 C39.76 8 30.52 8 21 8 C21 7.34 21 6.68 21 6 C17.7 6 14.4 6 11 6 C11 5.34 11 4.68 11 4 C8.36 4 5.72 4 3 4 C3 3.34 3 2.68 3 2 C2.01 2 1.02 2 0 2 C0 1.34 0 0.68 0 0 Z " fill="#FFE458" transform="translate(499,739)"/>
<path d="M0 0 C8.58 0 17.16 0 26 0 C26.33 0.99 26.66 1.98 27 3 C18.09 3 9.18 3 0 3 C0 2.01 0 1.02 0 0 Z " fill="#88BF28" transform="translate(520,779)"/>
<path d="M0 0 C2 2 2 2 2.125 5.625 C2.08375 6.73875 2.0425 7.8525 2 9 C2.66 9 3.32 9 4 9 C4.12117188 9.88042969 4.24234375 10.76085937 4.3671875 11.66796875 C4.53476562 12.82941406 4.70234375 13.99085938 4.875 15.1875 C5.03742188 16.33605469 5.19984375 17.48460937 5.3671875 18.66796875 C5.94402647 21.7052752 6.79157814 24.17238838 8 27 C8.48210705 28.96056865 8.96315047 30.92146319 9.42578125 32.88671875 C10.01321376 35.04863024 10.78047953 37.05136524 11.625 39.125 C12.95926912 42.51766419 13.27553156 45.32624581 13 49 C10.6999007 46.6999007 10.57447969 45.68623331 10 42.5625 C9.39542947 39.28594366 8.913029 37.8695435 7 35 C6.92094936 32.66800612 6.91201231 30.33167378 7 28 C6.34 28 5.68 28 5 28 C5 26.35 5 24.7 5 23 C4.34 23 3.68 23 3 23 C3 20.03 3 17.06 3 14 C2.34 14 1.68 14 1 14 C0.67 9.38 0.34 4.76 0 0 Z " fill="#FFEE96" transform="translate(297,674)"/>
<path d="M0 0 C0.33 0 0.66 0 1 0 C1.05970363 9.09390498 0.89667714 18.16237699 0.5625 27.25 C0.52318359 28.47074219 0.48386719 29.69148438 0.44335938 30.94921875 C0.40146484 32.10550781 0.35957031 33.26179688 0.31640625 34.453125 C0.27974854 35.49629883 0.24309082 36.53947266 0.20532227 37.61425781 C0 40 0 40 -1 41 C-1.23427778 43.01594582 -1.41336124 45.038474 -1.5625 47.0625 C-1.68818359 48.71958984 -1.68818359 48.71958984 -1.81640625 50.41015625 C-1.87699219 51.26480469 -1.93757812 52.11945313 -2 53 C-2.33 53 -2.66 53 -3 53 C-3.02888146 49.68751813 -3.04675799 46.37506833 -3.0625 43.0625 C-3.07087891 42.11697266 -3.07925781 41.17144531 -3.08789062 40.19726562 C-3.09111328 39.29814453 -3.09433594 38.39902344 -3.09765625 37.47265625 C-3.10289307 36.64000244 -3.10812988 35.80734863 -3.11352539 34.94946289 C-3 33 -3 33 -2 32 C-1.85438241 30.39970775 -1.77274273 28.79349643 -1.71875 27.1875 C-1.68136719 26.19363281 -1.64398437 25.19976562 -1.60546875 24.17578125 C-1.57066406 23.12777344 -1.53585937 22.07976562 -1.5 21 C-1.25869974 13.94867018 -0.87542137 7.00337092 0 0 Z " fill="#FFE454" transform="translate(737,222)"/>
<path d="M0 0 C0.33 0 0.66 0 1 0 C1.09943937 9.34730068 1.064276 18.66334819 0.5625 28 C0.52326416 28.77069824 0.48402832 29.54139648 0.44360352 30.33544922 C0.12548029 35.74903941 0.12548029 35.74903941 -1 38 C-1.27024708 40.29924497 -1.44497841 42.59801487 -1.62109375 44.90625 C-2 47 -2 47 -4 49 C-3.85978195 46.35375716 -3.71310224 43.70815422 -3.5625 41.0625 C-3.52318359 40.30775391 -3.48386719 39.55300781 -3.44335938 38.77539062 C-3.11328125 33.11328125 -3.11328125 33.11328125 -2 32 C-1.85364765 29.97577355 -1.77254982 27.94676576 -1.71875 25.91796875 C-1.66267578 24.05495117 -1.66267578 24.05495117 -1.60546875 22.15429688 C-1.57066406 20.84525391 -1.53585937 19.53621094 -1.5 18.1875 C-1.43108171 15.61837921 -1.35832996 13.04935762 -1.28125 10.48046875 C-1.25095703 9.33473389 -1.22066406 8.18899902 -1.18945312 7.00854492 C-1.03189203 4.50645043 -0.72217009 2.38762005 0 0 Z " fill="#FFF8D6" transform="translate(588,215)"/>
<path d="M0 0 C1.32 0 2.64 0 4 0 C4 0.99 4 1.98 4 3 C3.34 3 2.68 3 2 3 C2 13.23 2 23.46 2 34 C1.34 34 0.68 34 0 34 C0 22.78 0 11.56 0 0 Z " fill="#12A84E" transform="translate(669,610)"/>
<path d="M0 0 C0.66 0 1.32 0 2 0 C1.57388849 8.97772868 0.19536035 17.29696434 -2 26 C-2.40245729 27.76933967 -2.79916063 29.54000818 -3.1875 31.3125 C-3.455625 32.529375 -3.72375 33.74625 -4 35 C-4.66 35 -5.32 35 -6 35 C-6 36.98 -6 38.96 -6 41 C-6.99 41.495 -6.99 41.495 -8 42 C-6.9833693 36.59391673 -5.83129342 31.25987783 -4.4375 25.9375 C-3.15367637 20.94413573 -2.50393575 16.12334677 -2 11 C-1.67 10.67 -1.34 10.34 -1 10 C-0.76712992 8.31816052 -0.58735834 6.6287584 -0.4375 4.9375 C-0.35371094 4.01839844 -0.26992188 3.09929688 -0.18359375 2.15234375 C-0.12300781 1.44207031 -0.06242188 0.73179687 0 0 Z " fill="#FFEA79" transform="translate(765,688)"/>
<path d="M0 0 C-2.09631445 2.09631445 -6.17376711 1.96373809 -9.0625 2.4375 C-13.4705269 3.16384445 -17.80749011 3.91596078 -22.12109375 5.08984375 C-25.91224874 5.97940982 -29.120301 6.20582706 -33 6.125 C-34.7015625 6.09792969 -34.7015625 6.09792969 -36.4375 6.0703125 C-37.283125 6.04710937 -38.12875 6.02390625 -39 6 C-39 5.67 -39 5.34 -39 5 C-37.72382812 4.86722656 -36.44765625 4.73445313 -35.1328125 4.59765625 C-33.46352004 4.41947335 -31.79425036 4.24107686 -30.125 4.0625 C-29.28324219 3.97548828 -28.44148437 3.88847656 -27.57421875 3.79882812 C-26.36572266 3.66831055 -26.36572266 3.66831055 -25.1328125 3.53515625 C-24.38918457 3.456604 -23.64555664 3.37805176 -22.87939453 3.29711914 C-20.91553684 3.08362653 -20.91553684 3.08362653 -19 2 C-16.6670134 1.95977609 -14.33293334 1.95679753 -12 2 C-12 1.34 -12 0.68 -12 0 C-10.37585622 -0.19477739 -8.75063577 -0.38059458 -7.125 -0.5625 C-6.22007812 -0.66691406 -5.31515625 -0.77132813 -4.3828125 -0.87890625 C-2 -1 -2 -1 0 0 Z " fill="#FFF3B3" transform="translate(555,491)"/>
<path d="M0 0 C0.99 0 1.98 0 3 0 C3 5.28 3 10.56 3 16 C2.01 16 1.02 16 0 16 C0 10.72 0 5.44 0 0 Z " fill="#A9C61B" transform="translate(733,630)"/>
<path d="M0 0 C0.33 0 0.66 0 1 0 C1.13399925 4.97073425 0.70654675 9.44720499 -0.3125 14.3125 C-0.55613281 15.52550781 -0.79976562 16.73851562 -1.05078125 17.98828125 C-2 21 -2 21 -5 23 C-6.2188121 26.55672179 -6.2188121 26.55672179 -7 30 C-8.53445094 26.93109813 -7.54984289 24.29905734 -7 21 C-6.34 21 -5.68 21 -5 21 C-4.87753906 20.34644531 -4.75507812 19.69289063 -4.62890625 19.01953125 C-3.83630969 15.21408317 -2.89043633 11.45547088 -1.9375 7.6875 C-1.75123047 6.94693359 -1.56496094 6.20636719 -1.37304688 5.44335938 C-0.91643895 3.62863559 -0.45836694 1.81428029 0 0 Z " fill="#FFE979" transform="translate(625,663)"/>
<path d="M0 0 C1.44715727 3.87186448 0.5441918 6.8232328 -0.4375 10.75 C-0.72496094 11.92046875 -1.01242187 13.0909375 -1.30859375 14.296875 C-1.65083984 15.63492187 -1.65083984 15.63492187 -2 17 C-2.66 17 -3.32 17 -4 17 C-4 18.32 -4 19.64 -4 21 C-4.66 21 -5.32 21 -6 21 C-6 22.65 -6 24.3 -6 26 C-6.66 26 -7.32 26 -8 26 C-7.45144652 21.428721 -6.58255197 17.32564205 -5 13 C-4.34 13 -3.68 13 -3 13 C-2.86722656 12.31292969 -2.73445312 11.62585938 -2.59765625 10.91796875 C-2.42105469 10.01691406 -2.24445312 9.11585938 -2.0625 8.1875 C-1.88847656 7.29417969 -1.71445312 6.40085937 -1.53515625 5.48046875 C-1 3 -1 3 0 0 Z " fill="#FFEA7B" transform="translate(583,267)"/>
<path d="M0 0 C0 3.7036397 -1.33145666 4.76130855 -3.69921875 7.44921875 C-5.40229107 9.47960827 -6.6478763 11.72597378 -8 14 C-10.27765227 16.69177086 -12.88380282 18.36399648 -16 20 C-16.99 20 -17.98 20 -19 20 C-18.29875 19.39414062 -17.5975 18.78828125 -16.875 18.1640625 C-10.53081692 12.56118342 -5.06818763 6.82535297 0 0 Z " fill="#FFE55E" transform="translate(558,322)"/>
<path d="M0 0 C0.66 0.33 1.32 0.66 2 1 C-7.2018744 6.58076642 -14.25583944 8.396301 -25 8 C-25 7.67 -25 7.34 -25 7 C-22.36 7 -19.72 7 -17 7 C-17 6.34 -17 5.68 -17 5 C-16.10796875 4.80664062 -15.2159375 4.61328125 -14.296875 4.4140625 C-13.12640625 4.15367187 -11.9559375 3.89328125 -10.75 3.625 C-9.58984375 3.36976563 -8.4296875 3.11453125 -7.234375 2.8515625 C-4.08219823 2.14272416 -4.08219823 2.14272416 -1.703125 0.8359375 C-0.86007812 0.42214844 -0.86007812 0.42214844 0 0 Z " fill="#FFEA7C" transform="translate(573,737)"/>
<path d="M0 0 C0.99 0 1.98 0 3 0 C3 0.99 3 1.98 3 3 C-6.41002278 5.11161731 -6.41002278 5.11161731 -11 6 C-11 6.66 -11 7.32 -11 8 C-13.31 8.33 -15.62 8.66 -18 9 C-17.67 8.34 -17.34 7.68 -17 7 C-16.01 7 -15.02 7 -14 7 C-14 6.34 -14 5.68 -14 5 C-13.07316406 4.72285156 -12.14632812 4.44570313 -11.19140625 4.16015625 C-9.99386719 3.79792969 -8.79632812 3.43570312 -7.5625 3.0625 C-6.36753906 2.70285156 -5.17257812 2.34320313 -3.94140625 1.97265625 C-1.14132455 1.29110858 -1.14132455 1.29110858 0 0 Z " fill="#FFED90" transform="translate(607,471)"/>
<path d="M0 0 C1.36088895 4.08266686 0.68398693 6.75928101 0 11 C-0.33 11.33 -0.66 11.66 -1 12 C-1.18425439 13.57932331 -1.32254756 15.16412556 -1.4375 16.75 C-1.77122334 20.50707894 -2.29250849 23.58501698 -4 27 C-4.33 27 -4.66 27 -5 27 C-5.23599124 21.21821465 -4.81950896 16.55429052 -3 11 C-2.45011618 9.0231006 -1.90890657 7.04377415 -1.375 5.0625 C-1.11460937 4.10472656 -0.85421875 3.14695312 -0.5859375 2.16015625 C-0.39257812 1.44730469 -0.19921875 0.73445313 0 0 Z " fill="#FFEB82" transform="translate(732,289)"/>
<path d="M0 0 C0.33 0 0.66 0 1 0 C0.88957056 3.22983662 0.75907341 6.45856526 0.625 9.6875 C0.5940625 10.59951172 0.563125 11.51152344 0.53125 12.45117188 C0.33223046 17.01203631 0.14309878 20.86190275 -2 25 C-2.33 25 -2.66 25 -3 25 C-3.10685073 19.62897013 -2.71032129 14.4545936 -2.0625 9.125 C-1.97548828 8.35414063 -1.88847656 7.58328125 -1.79882812 6.7890625 C-1.12581949 1.12581949 -1.12581949 1.12581949 0 0 Z " fill="#FFF5C3" transform="translate(736,262)"/>
<path d="M0 0 C1.65477507 3.30955015 0.11071213 6.62264006 -0.75 10.0625 C-0.92015625 10.80822266 -1.0903125 11.55394531 -1.265625 12.32226562 C-1.74024167 14.24341619 -2.36116208 16.12704336 -3 18 C-3.99 18.33 -4.98 18.66 -6 19 C-5.09276387 14.31261335 -4.0452733 9.65806256 -3 5 C-2.34 5 -1.68 5 -1 5 C-0.67 3.35 -0.34 1.7 0 0 Z " fill="#FFE55B" transform="translate(717,346)"/>
<path d="M0 0 C7.57599007 1.5003014 14.86497056 3.00328763 22 6 C14.60016776 8.2655874 6.77503808 3.8599546 0 1 C0 0.67 0 0.34 0 0 Z " fill="#FFE455" transform="translate(441,857)"/>
<path d="M0 0 C1.32 0.33 2.64 0.66 4 1 C1.58112915 3.41887085 0.25907651 3.49376963 -3.0625 4.0625 C-6.33083952 4.41027566 -6.33083952 4.41027566 -9 6 C-10.66617115 6.04063832 -12.33388095 6.042721 -14 6 C-13.34 5.67 -12.68 5.34 -12 5 C-12 4.34 -12 3.68 -12 3 C-6.06 2.505 -6.06 2.505 0 2 C0 1.34 0 0.68 0 0 Z " fill="#FFE870" transform="translate(635,855)"/>
<path d="M0 0 C0.33 0 0.66 0 1 0 C1.0270043 1.45823212 1.04639787 2.91660675 1.0625 4.375 C1.07410156 5.18710938 1.08570313 5.99921875 1.09765625 6.8359375 C1 9 1 9 0 11 C-0.27024708 13.29924497 -0.44497841 15.59801487 -0.62109375 17.90625 C-1 20 -1 20 -3 22 C-2.88525534 19.45749979 -2.7585303 16.91652662 -2.625 14.375 C-2.5940625 13.66214844 -2.563125 12.94929687 -2.53125 12.21484375 C-2.28979845 7.82847392 -1.60657269 4.1405166 0 0 Z " fill="#FFEE95" transform="translate(587,242)"/>
<path d="M0 0 C0.66 0.33 1.32 0.66 2 1 C1.01 1.33 0.02 1.66 -1 2 C-1 2.66 -1 3.32 -1 4 C-5.20024742 7.32608425 -9.8423143 9.58163643 -15 11 C-11.67635324 5.65326391 -7.80054339 4.52450179 -2 3 C-2 2.34 -2 1.68 -2 1 C-1.34 0.67 -0.68 0.34 0 0 Z " fill="#FFE664" transform="translate(537,344)"/>
<path d="M0 0 C0.66 0.33 1.32 0.66 2 1 C1.01 1.33 0.02 1.66 -1 2 C-1 2.66 -1 3.32 -1 4 C-1.66 4 -2.32 4 -3 4 C-3 4.66 -3 5.32 -3 6 C-5.25 7.6875 -5.25 7.6875 -8 9 C-10.171875 8.58203125 -10.171875 8.58203125 -12 8 C-10.90241493 7.15801693 -9.79664683 6.32669329 -8.6875 5.5 C-8.07261719 5.0359375 -7.45773437 4.571875 -6.82421875 4.09375 C-5 3 -5 3 -2 3 C-2 2.34 -2 1.68 -2 1 C-1.34 0.67 -0.68 0.34 0 0 Z " fill="#FFF1A8" transform="translate(680,832)"/>
<path d="M0 0 C3.12687408 4.69031112 4.2610462 7.25698366 4 13 C4.66 13 5.32 13 6 13 C5.67 14.32 5.34 15.64 5 17 C5 16.34 5 15.68 5 15 C4.34 15 3.68 15 3 15 C0.5978396 10.1956792 0.38877771 5.26896105 0 0 Z " fill="#FFE975" transform="translate(446,671)"/>
<path d="M0 0 C-2.31 0.33 -4.62 0.66 -7 1 C-7 1.66 -7 2.32 -7 3 C-12.94 3.495 -12.94 3.495 -19 4 C-18.67 3.34 -18.34 2.68 -18 2 C-15.69 2 -13.38 2 -11 2 C-11 1.34 -11 0.68 -11 0 C-3.57142857 -1.28571429 -3.57142857 -1.28571429 0 0 Z " fill="#FFE76C" transform="translate(577,485)"/>
<path d="M0 0 C0.66 0.33 1.32 0.66 2 1 C0 4 0 4 -2.625 4.6875 C-3.40875 4.790625 -4.1925 4.89375 -5 5 C-5 6.32 -5 7.64 -5 9 C-5.99 9 -6.98 9 -8 9 C-8 9.66 -8 10.32 -8 11 C-8.66 10.67 -9.32 10.34 -10 10 C-9.67 9.34 -9.34 8.68 -9 8 C-8.34 8 -7.68 8 -7 8 C-6.67 6.68 -6.34 5.36 -6 4 C-4.68 3.67 -3.36 3.34 -2 3 C-2 2.34 -2 1.68 -2 1 C-1.34 0.67 -0.68 0.34 0 0 Z " fill="#FFF0A1" transform="translate(702,814)"/>
<path d="M0 0 C3.52869781 1.41147912 4.41455951 2.63093896 6 6 C7.29470975 7.37086915 8.62150897 8.71340837 10 10 C9.67 10.66 9.34 11.32 9 12 C7 10.625 7 10.625 5 9 C5 8.34 5 7.68 5 7 C4.34 7 3.68 7 3 7 C0 2.61538462 0 2.61538462 0 0 Z " fill="#FFEA7B" transform="translate(348,792)"/>
<path d="M0 0 C0.99 0 1.98 0 3 0 C3 2.97 3 5.94 3 9 C2.01 8.67 1.02 8.34 0 8 C-1.125 2.25 -1.125 2.25 0 0 Z " fill="#11A84E" transform="translate(399,661)"/>
<path d="M0 0 C0.99 0 1.98 0 3 0 C3 2.97 3 5.94 3 9 C2.01 9 1.02 9 0 9 C0 6.03 0 3.06 0 0 Z " fill="#11A84E" transform="translate(332,639)"/>
<path d="M0 0 C0 3.56229451 -0.76109009 4.41109679 -2.875 7.1875 C-3.40867187 7.90292969 -3.94234375 8.61835937 -4.4921875 9.35546875 C-4.98976563 9.89816406 -5.48734375 10.44085937 -6 11 C-6.66 11 -7.32 11 -8 11 C-8 11.66 -8 12.32 -8 13 C-8.66 12.67 -9.32 12.34 -10 12 C-9.67 11.34 -9.34 10.68 -9 10 C-8.34 10 -7.68 10 -7 10 C-7 9.01 -7 8.02 -7 7 C-4.625 4.4375 -4.625 4.4375 -2 2 C-1.34 1.34 -0.68 0.68 0 0 Z " fill="#FFEF9B" transform="translate(716,799)"/>
<path d="M0 0 C1 2 1 2 0.00390625 5.0390625 C-0.47175781 6.22242188 -0.94742188 7.40578125 -1.4375 8.625 C-1.91058594 9.81351563 -2.38367188 11.00203125 -2.87109375 12.2265625 C-3.24363281 13.14179687 -3.61617187 14.05703125 -4 15 C-4.33 15 -4.66 15 -5 15 C-5 13.02 -5 11.04 -5 9 C-4.34 9 -3.68 9 -3 9 C-3 7.35 -3 5.7 -3 4 C-2.34 4 -1.68 4 -1 4 C-0.67 2.68 -0.34 1.36 0 0 Z " fill="#FFE03F" transform="translate(755,731)"/>
<path d="M0 0 C0.33 0.66 0.66 1.32 1 2 C-0.65909182 6.10406925 -2.21704034 8.65195608 -6 11 C-5.34 8.69 -4.68 6.38 -4 4 C-3.34 4 -2.68 4 -2 4 C-2 3.01 -2 2.02 -2 1 C-1.34 0.67 -0.68 0.34 0 0 Z " fill="#FFEF9B" transform="translate(611,702)"/>
<path d="M0 0 C2.31 0 4.62 0 7 0 C7 1.65 7 3.3 7 5 C6.34 5 5.68 5 5 5 C4.34 4.34 3.68 3.68 3 3 C2.34 3 1.68 3 1 3 C0.67 2.01 0.34 1.02 0 0 Z " fill="#11A84E" transform="translate(726,610)"/>
<path d="M0 0 C0.99 0 1.98 0 3 0 C3 2.31 3 4.62 3 7 C2.01 7 1.02 7 0 7 C0 4.69 0 2.38 0 0 Z " fill="#ADC61A" transform="translate(399,650)"/>
<path d="M0 0 C0.99 0 1.98 0 3 0 C3 2.31 3 4.62 3 7 C2.01 7 1.02 7 0 7 C0 4.69 0 2.38 0 0 Z " fill="#C7CB12" transform="translate(733,639)"/>
<path d="M0 0 C0.99 0 1.98 0 3 0 C3 2.31 3 4.62 3 7 C2.01 7 1.02 7 0 7 C0 4.69 0 2.38 0 0 Z " fill="#11A84E" transform="translate(664,670)"/>
<path d="M0 0 C0.66 0.33 1.32 0.66 2 1 C-4.14285714 6.57142857 -4.14285714 6.57142857 -9 7 C-9 6.34 -9 5.68 -9 5 C-8.01 5 -7.02 5 -6 5 C-6 4.34 -6 3.68 -6 3 C-4.03533587 1.93224776 -2.03144641 0.93446535 0 0 Z " fill="#FFE55D" transform="translate(623,462)"/>
<path d="M0 0 C1.98 0 3.96 0 6 0 C6.33 0.99 6.66 1.98 7 3 C4.69 3 2.38 3 0 3 C0 2.01 0 1.02 0 0 Z " fill="#11A84E" transform="translate(451,403)"/>
<path d="M0 0 C1.98 0 3.96 0 6 0 C6 0.99 6 1.98 6 3 C4.02 3 2.04 3 0 3 C0 2.01 0 1.02 0 0 Z " fill="#12A84E" transform="translate(551,779)"/>
<path d="M0 0 C1.98 0 3.96 0 6 0 C6 0.99 6 1.98 6 3 C4.02 3 2.04 3 0 3 C0 2.01 0 1.02 0 0 Z " fill="#6CB933" transform="translate(520,779)"/>
<path d="M0 0 C2.57471193 1.28735597 2.70416657 2.28489811 3.6875 4.9375 C3.95949219 5.64777344 4.23148437 6.35804688 4.51171875 7.08984375 C5 9 5 9 4 11 C3.67 9.68 3.34 8.36 3 7 C2.34 7 1.68 7 1 7 C0.67 4.69 0.34 2.38 0 0 Z " fill="#FFEF98" transform="translate(452,688)"/>
<path d="M0 0 C0.99 0 1.98 0 3 0 C3 1.98 3 3.96 3 6 C2.01 6 1.02 6 0 6 C0 4.02 0 2.04 0 0 Z " fill="#83BE2A" transform="translate(332,653)"/>
<path d="M0 0 C0.99 0 1.98 0 3 0 C3 1.98 3 3.96 3 6 C2.01 6 1.02 6 0 6 C0 4.02 0 2.04 0 0 Z " fill="#8BBF27" transform="translate(626,268)"/>
<path d="M0 0 C0.99 0.33 1.98 0.66 3 1 C3 1.66 3 2.32 3 3 C3.66 3 4.32 3 5 3 C5.33 4.65 5.66 6.3 6 8 C4 6.6875 4 6.6875 2 5 C2 4.01 2 3.02 2 2 C1.34 2 0.68 2 0 2 C0 1.34 0 0.68 0 0 Z " fill="#FFE45A" transform="translate(342,784)"/>
<path d="M0 0 C0.66 0 1.32 0 2 0 C2 1.65 2 3.3 2 5 C2.66 5 3.32 5 4 5 C3.67 6.32 3.34 7.64 3 9 C2.34 8.67 1.68 8.34 1 8 C0.40644386 5.35139573 0.25790731 2.70802678 0 0 Z " fill="#FFEC8B" transform="translate(310,724)"/>
<path d="M0 0 C1.43088528 2.86177057 0.59991697 4.93375773 0 8 C-0.99 8.33 -1.98 8.66 -3 9 C-2.44271087 5.65626525 -1.64826111 2.96687001 0 0 Z " fill="#FFF1A7" transform="translate(714,356)"/>
<path d="M0 0 C0.99 0 1.98 0 3 0 C3 1.65 3 3.3 3 5 C2.01 5.33 1.02 5.66 0 6 C0 4.02 0 2.04 0 0 Z " fill="#12A84E" transform="translate(626,277)"/>
</svg>